<svg id="ICONS" xmlns="http://www.w3.org/2000/svg" width="240" height="240" viewBox="0 0 240 240">
  <defs>
    <style>
      .cls-1 {
        fill: #fff;
        fill-rule: evenodd;
      }
    </style>
  </defs>
  <g id="Crafting">
    <path id="Фигура_6_копия" data-name="Фигура 6 копия" class="cls-1" d="M130.805,122.656c-10.376-3.958-10.864-10.384-6.612-11.1,2.237-.376,3.936.973,6.612,2.219s15.6,7.2,17.633,8.878S141.181,126.614,130.805,122.656Zm35.266,4.439c6.808,1.021,17.523,11.314,15.429,26.633s-5.882,26.226-19.837,35.511-17.94,7.17-24.246,2.22-10.837-5.408-17.633-17.756c-3.429-6.231-3.657-20.853,0-24.414,2.909-2.832,1.606-10.6,4.409-11.1,8.992-1.6,12.244-.747,19.837-2.22S159.262,126.073,166.071,127.1ZM152.846,173.7c1.656,5.669,1.989,2.823,6.613,0s2.165-5.68-2.205-6.658S151.345,168.564,152.846,173.7Zm8.817-31.072c-1.286-.885-0.723,2.212-4.409,4.439-0.827.5-4.24,1.947-4.408,4.439s6.791,2.51,8.817,0S162.948,143.515,161.663,142.631ZM95.539,58.292S104.5,76.47,108.764,84.925s5.673,15.106,4.408,15.536-8.589-7.589-13.225-17.755-9.376-20.5-8.816-22.194C91.9,58.19,95.539,58.292,95.539,58.292ZM115.376,195.9c-1.232,1.688-8.25-2.426-13.225-6.659s-11.285-10.866-11.02-22.194,1.093-16.317,4.408-22.195,10.335-12.031,11.021-11.1-3.663,9.186-4.409,13.317c-2.341,12.969-1.245,23.269,2.2,31.072S116.608,194.209,115.376,195.9Zm77.214-21.444c-2.9,6.068-12.6,23.4-30.927,32.541-19.147,9.546-44.425,9.148-61.716,0C86.6,199.936,78.452,188.476,75.7,173.7c-2.945-15.821,3.472-31.072,6.612-39.95s10.719-15.7,2.2-33.292S68.117,73.874,64.681,67.17s-7.342-10.121-6.612-13.317,4.894-6.082,6.612-4.439C69.457,53.98,87.114,82.779,91.131,93.8s6.935,24.42,2.2,37.731-14.068,37.054-6.612,51.047S104.392,202,117.58,204.775s26.45,2.174,39.674-4.438c14.47-7.236,26.848-22.166,28.654-37.731s-3.446-33.055-8.816-37.731-25.952-10.536-37.471-15.536-17.1-7.518-24.245-26.633S102.082,46.369,99.947,44.975s-10.5,6.414-13.225,6.658-8.806-3.557-6.612-6.658,14.171-9.577,17.633-11.1,8.159-3.266,11.021,4.439S121.54,79.222,126.4,87.145s6.94,12.216,30.857,17.755,32.561,22.689,35.266,31.072S196.413,166.45,192.59,174.454ZM66.885,44.975c-2.007,1.087-4.94-1.837-4.408-4.439S86.261,25.15,88.927,25s5.026,1.149,4.408,4.439S68.893,43.888,66.885,44.975Z"/>
  </g>
</svg>
