<svg id="Equipments_icon" xmlns="http://www.w3.org/2000/svg" width="240" height="240" viewBox="0 0 240 240">
  <defs>
    <style>
      .cls-1 {
        fill: #fff;
        stroke: red;
        stroke-width: 1px;
        fill-rule: evenodd;
      }
    </style>
  </defs>
  <g id="Pauldrons">
    <path id="Фигура_97" data-name="Фигура 97" class="cls-1" d="M211.579,164.269c-2.234,3.583-6.589,9.969-18.067,12.675a45.611,45.611,0,0,1-28.694-3.169c-5.816-2.854-16.225-10.836-15.941-14.787,0.134-1.86,3.711-5.874,5.314-10.562s0.135-12.052-1.063-17.955-5.486-8.047-6.377-10.562,2.361-9.973,9.565-19.012,16.591-12.484,22.318-12.674,9.112,7.63,10.627,13.731,2.5,13.3,3.189,17.955,2.514,8.361,2.125,16.9-3.22,14.446-3.188,15.843,1.706,5.777,1.063,7.394-6.576.907-15.942,0-17.5-8.791-18.066-7.394,2.033,4.575,7.439,7.394a38.631,38.631,0,0,0,13.816,4.224c5.462,0.774,11.123.669,12.753,0s2.782-.261,3.188,1.057a8.492,8.492,0,0,0,5.314,5.281c3.18,0.885,4.707-1.683,5.314-3.169s-1.276-2.234-2.126-4.225-3.16-2.128,2.126-6.337,7.547-3.629,8.5-2.112S213.813,160.687,211.579,164.269Zm-4.251-21.124c-0.335,4.247.336,9.039-1.062,10.562s-6.441,4.758-7.44,3.169a3.04,3.04,0,0,1,0-3.169c0.52-1,1.753-1.656,2.126-3.168s-0.106-12.571,0-14.787,2.7-3.9,3.188-6.337-2.358-2.208-2.125-9.506-9.858-25.119-9.565-26.4,5.054,1.552,9.565,6.337,5.916,6.774,8.5,13.731,2.36,10.845,1.062,14.787S207.664,138.9,207.328,143.145ZM204.14,95.616c-1.155.1-4.754-4.276-8.5-6.337S184.7,85.03,183.948,84s-1.865-9.5-1.063-10.562c0.83-1.1,9.015,2.746,12.753,6.337s9.777,9.149,9.565,11.618S205.3,95.512,204.14,95.616ZM173.32,84c-4.535,1.02-12.378,2.552-20.192,11.618-7.9,9.171-11.15,16.106-11.69,20.068s-0.892,6.714,1.062,7.394,2.251,3.935,0,5.281c-3.066,1.833-8.363,2.411-10.627,0-3.844-4.093-5.373-12.571-3.188-21.124,2.48-9.713,10.15-20.307,17-26.405s14.537-11.672,24.443-11.618,4.581,3.963,4.251,7.393S175.565,83.493,173.32,84ZM94.677,103.01c-2.389-1.137-3.109-3.2-2.125-8.45S90.92,83.572,89.363,81.886s-6.718-3.622-6.376-6.337a4.589,4.589,0,0,1,4.251-4.225c2.3-.353,9.02,4.693,11.69,9.506s2.02,9.815,1.063,14.787S97.066,104.146,94.677,103.01Zm-2.125,4.225c1.954,1.641-2.44,6.556-4.251,9.5s-2.07,8.3-1.063,13.731,4.653,8.4,7.439,11.618a3.878,3.878,0,0,1-1.063,6.337c-1.188.559-5.12-2.165-9.565-2.112s-5.385-1.328-5.314-3.169c0.162-4.179,4.745-2.993,5.314-4.224s-3.755-4.363-4.251-6.338a25.308,25.308,0,0,1,0-14.786c1.38-4.613,3.359-8.346,6.376-10.562S90.6,105.593,92.551,107.235ZM69.171,79.773c-2.364.755-5.9,3.472-9.565,6.337S48.933,97.133,44.727,104.066s-4.47,16.9-7.439,16.9c-2.795,0-5.732-2.577-7.439-3.168a10.769,10.769,0,0,1-4.251-2.113c-0.976-1.013-.6-8.165,0-10.562s3.285-1.95,4.251-3.168,0.613-5.062,3.188-8.45,5.445-8.81,12.753-15.843S61.449,67.546,64.92,67.1s2.726,1.292,3.188,4.225S70.319,74.55,71.3,76.6,71.534,79.018,69.171,79.773Zm-30.82,67.6c0.365-7.12-1.912-13.994-2.126-16.9s0.99-5.005,3.188-5.281,5.372,9.729,6.377,17.955-0.81,16.274-4.251,20.068-11.375,2.977-11.69,0c-0.388-3.665,3.141-3.627,5.314-6.337C37.215,154.316,38.094,152.367,38.351,147.37Zm25.506-2.112c2.211-1.485,3.935.36,5.314,1.056a4.04,4.04,0,0,1,2.126,3.169c-0.054.811-4.151,0.957-8.5,3.168s-7.694,3.351-8.5,1.056C53.16,150.493,61.646,146.743,63.857,145.258Z"/>
  </g>
</svg>
