<svg id="ICONS" xmlns="http://www.w3.org/2000/svg" width="240" height="240" viewBox="0 0 240 240">
  <defs>
    <style>
      .cls-1 {
        fill: #fff;
        fill-rule: evenodd;
      }
    </style>
  </defs>
  <g id="coins">
    <path id="Прямоугольник_1" data-name="Прямоугольник 1" class="cls-1" d="M143.25,209V195.466H207V209H143.25Zm0-32.869H207v13.534H143.25V176.131Zm0-19.335H207v13.535H143.25V156.8Zm0-19.334h32.4l-1.486-3.867H185.75v3.867H207V151H143.25V137.462Zm20.656-23.2H185.75v13.534H171.336C169.214,123.543,166.287,117.927,163.906,114.26Zm-14.861-13.534c-2.111-1.281-4.953-3.142-7.727-5v-0.8H185.75V108.46H159.266A46.763,46.763,0,0,0,149.045,100.726Zm11.591,21.268a64.441,64.441,0,0,0,4.256,9.667H135.523v69.6c-21.372-.489-26.16-1.414-32.841-1.933s-17.221,4.6-32.841,1.933S36.929,191.445,37,187.732c0.161-8.382,11.267-15.972,15.455-19.335,8.221-6.6,7.94-8.728,7.727-15.468-0.277-8.784,3.279-19.195,7.727-29s9.947-17.588,13.523-17.4,10.217,2.355,23.182-1.933c9.28-3.07,11.78-13.205,15.454-13.535s7.615,4.087,20.562,11.493C153.663,110.006,157.46,111.774,160.636,121.994ZM104.614,94.925c-6.87,6.158-13.97,6.478-19.318,5.8S72.543,90.9,65.977,89.125,45.17,82.674,42.8,77.524c-2.738-5.937,6.17-19.053,17.386-32.869S77.106,30.611,83.364,31.121s6.064,6.8,9.659,7.734,8.421-7.483,15.454-5.8,7.722,7.909,7.728,17.4-2.288,19.891-3.864,30.936S111.484,88.767,104.614,94.925Zm7.727-48.337c-2.074-4.712-2.276-7.041-7.727-5.8s-15.267,5.153-15.455,9.667-0.177,12.141-1.932,11.6-5.547-7.285-9.659-11.6-7.3-6.067-9.659-5.8-8.193,5.884-11.591,11.6-7.469,11.768-5.8,17.4c1.692,5.7,10.258,7.056,15.455,7.734s6.394,0.814,15.454-5.8,19.719-11.38,25.113-15.468S114.415,51.3,112.341,46.589Z"/>
  </g>
</svg>
