<svg id="Equipments_icon" xmlns="http://www.w3.org/2000/svg" width="240" height="240" viewBox="0 0 240 240">
  <defs>
    <style>
      .cls-1 {
        fill: #fff;
        stroke: red;
        stroke-width: 1px;
        fill-rule: evenodd;
      }
    </style>
  </defs>
  <g id="Arrows">
    <path id="Фигура_130" data-name="Фигура 130" class="cls-1" d="M170.312,104.518c-6.423,2.089-8.347,4.185-8.347,4.185l-3.129-2.092s4.925-3.869,7.3-6.278,4.03-5.271,14.606-14.648S199.866,66.69,201.61,67.9s-26.082,28.25-26.082,28.25,4.957-2.5,19.823-12.556S211,77.315,211,77.315,176.734,102.429,170.312,104.518Zm4.173-25.111c-3.059,2-7.981,3.3-10.433,6.278s-16.693,17.787-16.693,17.787h-4.173s12.748-13.466,15.65-16.741a20.688,20.688,0,0,0,3.129-4.185c0.747-.982,1.485-6.438,2.087-8.37s3.509-6.077,6.26-9.417,8.758-10.794,12.519-15.694,10.685-12.649,11.476-13.6a1.246,1.246,0,0,1,2.087,1.046c-0.293.918-5.344,14.04-6.26,15.694s-13.882,16.131-13.563,16.741,12.482-11.8,16.693-15.694,9.06-4.821,12.52-7.324,4.173,1.046,4.173,1.046-16.324,15.355-17.736,16.741S177.544,77.4,174.485,79.407Zm-9.39-13.6c-4.579,4.774-9.4,7-12.519,9.417s-13.563,21.972-13.563,21.972l-1.043-6.278s9.156-14.809,11.476-18.833,3.317-9.756,4.173-12.556,3.255-5.445,7.3-11.509S173.9,24.991,175.528,25s-2.682,12.593-4.173,16.741-10.254,17.171-9.39,17.787,9.589-11.923,13.563-15.694S188,34.06,189.091,34.417s-2.739,5.061-7.3,10.463S169.675,61.032,165.1,65.805Zm-32.342,9.417,31.3-42.9,1.043,2.093L134.84,78.361Zm25.039,9.417c-2.252,3.113-2.445,3.483-5.216,5.231s-12.52,11.509-12.52,11.509l-1.043-2.092s6.938-7.867,10.433-11.509,3.2-5.427,6.26-9.417,5.216-5.231,5.216-5.231-0.055,5.1,0,6.278S160.044,81.526,157.792,84.639Zm-20.866,19.879c0.26,0.314,11.32,1.191,19.823,4.185,9.661,3.4,12.483,12.849,11.476,13.6s-10.872.971-11.476,1.046-2.209-5.091-12.52-9.416-14.2-1.808-15.649-3.139c-1.283-1.179.639-9.621-1.043-15.695s-8.008-11.953-8.346-12.555,0.025-10.526,1.043-11.509,9.923,3.7,12.519,10.463C135.871,89.623,136.667,104.2,136.926,104.518ZM122.32,93.009c3.838,4.395,3.672,11.921,3.13,15.694s-6.054,9.775-7.3,9.417c-1.347-.386-5.825-6.528-8.346-9.417s-6.047-7.731-6.26-9.416,2.235-.921,3.13-1.046,1.8-1.42,5.217-5.231,2.552-4.877,4.173-5.231S118.483,88.614,122.32,93.009Zm-6.259,27.2c0.369,1.669-4.22,6.053-5.217,6.277s-3.721-4.182-7.3-8.37-6.237-7.4-6.26-9.417,2.329-3.637,4.174-5.231c0.588-.509,1.818,1.458,4.173,4.185S115.691,118.543,116.061,120.213Zm-9.39,9.416c-0.434,1.436-10.263,10.78-13.563,14.648s1.043,1.047,1.043,1.047,12.953-11.819,14.606-12.556,10.422,10.191,13.562,12.556a24.351,24.351,0,0,0,5.217,3.138c0.731,0.405-5.921,4.057-9.39,7.324s-11.359,11.922-13.563,11.51-8.176-7.767-13.562-13.6S78.3,137.435,77.459,136.953s-0.752.907-1.043,2.093,3.469,7.737,10.433,15.694,4.9,10.207,3.13,10.463S82,159.636,78.5,154.74s-8.1-9.77-8.346-11.509c-0.212-1.487,2.314-3.565,3.13-6.278s1.515-3.236,3.13-3.139,2.092-1.159,8.346-6.277a37.58,37.58,0,0,0,10.433-14.649c0.482-1.708,3.755,5,6.26,8.371S107.105,128.194,106.671,129.629ZM93.108,178.805c-0.228,1.111-3.267,4.2-7.3,7.324s-8.781,8.029-10.433,8.37-9.257-9.37-13.563-14.648S52.478,168,53.463,165.2c0.636-1.806,8.627-9.179,11.476-12.555s2.447-5.653,3.13-6.278,8,12.1,11.476,16.74S93.336,177.693,93.108,178.805Zm-31.3,11.509c-0.583,4.9-4.66-.614-7.3-4.185S46.252,176,46.16,174.62c-0.1-1.461,1.281-3.225,3.13-4.185s3.394,2.323,7.3,7.324S62.393,185.416,61.81,190.314Zm1.043,13.6c-0.266,1.85-7.732,7.344-15.649,9.416s-14.546,1.968-15.649,1.047-0.4-3.311,1.043-5.232S47.2,193.453,47.2,193.453l-15.649,13.6s3.331-11.551,6.26-16.741,6.047-11.986,7.3-11.509,4.029,8.471,7.3,12.555S63.119,202.066,62.853,203.916Zm53.208-70.1c-2.134-2.492-3.13-3.492-3.13-5.231,0-1.159,1.894-3.186,3.13-4.185s1.844-1.318,4.173,1.046,2.388,4.3,2.086,9.417S118.194,136.307,116.061,133.814Zm5.216-12.555c2.984-4.924,12.609-5.13,17.736-3.139s11.623,6.8,11.476,8.37S140.432,137.659,140.056,138s-6.459-4.395-9.389-7.324S120.65,122.293,121.277,121.259Z"/>
  </g>
</svg>
