<svg id="ICONS" xmlns="http://www.w3.org/2000/svg" width="240" height="240" viewBox="0 0 240 240">
  <defs>
    <style>
      .cls-1 {
        fill: #fff;
        stroke: red;
        stroke-width: 1px;
        fill-rule: evenodd;
      }
    </style>
  </defs>
  <g id="Strength">
    <path id="Фигура_50" data-name="Фигура 50" class="cls-1" d="M77.458,98.37c5.053-1.124,3.477-9.594.871-15.691s1.244-14.247-.871-18.306-10.253-7.915-13.929-5.23-9.038,11.08-5.223,19.178S64.576,92,67.882,94.883,74.058,99.127,77.458,98.37ZM89.646,87.038c4.888,3.778,8.682,4.715,13.058,2.615s-0.072-9.692-.87-17.435a204.647,204.647,0,0,1-.871-21.793c0.073-5.245-4.49-6.2-9.576-6.1S82.233,51.835,81.811,57.4s-1.124,9.351,0,14.819C83.139,78.682,85.746,84.023,89.646,87.038Zm36.563-6.1c-0.169,5.937,7.8,10.034,13.059,11.333s12.526,1.431,14.8.872,7.386-.552,5.223,3.487a45.9,45.9,0,0,0-4.352,15.691c-0.173,4.122-1.185,5.061-6.094,7.845s-5.641,6.889-7.835,5.231-2.138-4.04,0-6.1,4.785-4.984-.871-6.974-9.464-3-12.188,1.743-4.707,8.424-6.964,12.2-6.811,10.011-5.223,11.332,7.656-1.394,11.317-3.487,9.812-3.231,8.7,0-28.728,68-28.728,68,13.129-47.265,11.317-48.818-10.914,7.447-13.058,6.1-1.535-20.728-1.741-27.9,2.444-18.08,3.482-21.793,1.325-5.731,0-6.1S96.61,117.639,94.869,118.42s-3.483-2.638-2.612-8.717,1.886-10.11,0-10.461a8.932,8.932,0,0,0-7.835,2.615c-2.912,2.752-3.565,7.646-6.094,6.974s-3.357-3.935-6.094-3.487-6.632,1.305-7.835,6.1,2,14.733,5.223,21.794,5.783,11.307,6.964,15.691-0.353,8.847,4.353,10.461,13.078,2.9,14.8,6.1,2.549,4.571,1.741,8.717-1.793,7.861-4.353,6.1S84.112,180,80.94,177.7s-4.518-.358-5.223,2.615-0.486,8.151-5.223,8.718-8.539,1.872-8.705,3.487,12.965,11.325,16.541,13.076,11.451-.4,14.8.871,1.729,3.8,12.188,6.974,15.916,3.958,27.858-.871,26.651-10.81,33.081-14.82,10.515-5.932,5.223-8.717-5.787-2.06-9.576-7.846-6.045-7.83-11.317-5.23-21.455,10.5-23.505,8.717-2.873-7.145,0-9.589,17.387-6.978,22.634-12.2S163.5,142.95,168,138.47s9.084-6.063,11.317-13.948,2.3-23.3,0-32.254-2.346-13.751-7.835-15.691-11.185-4.411-18.281-4.359-8.885.871-15.67,1.743S126.406,74.034,126.209,80.935ZM105.316,51.3c0,10.344,3.47,26.276,6.964,29.639s7.978,2.978,9.577-.872,1.956-7.244,5.223-9.589,0.277-12.608,0-17.435,0.537-18.055-1.741-21.793-5.847-4.679-9.576-1.744-7.381,3.82-8.706,9.589S105.316,47.353,105.316,51.3Zm27.858-7.846c0.741,8.9,1.986,22.2,6.964,23.537s12.215,0.633,14.8,0,3.623-5.136,2.611-9.589-0.138-13.988-.87-19.178-0.459-10.9-5.224-13.076A12.326,12.326,0,0,0,138.4,26.888C134.876,29.677,132.386,33.986,133.174,43.451Z"/>
  </g>
</svg>
