<svg id="Equipments_icon" xmlns="http://www.w3.org/2000/svg" width="240" height="240" viewBox="0 0 240 240">
  <defs>
    <style>
      .cls-1 {
        fill: #fff;
        stroke: red;
        stroke-width: 1px;
        fill-rule: evenodd;
      }
    </style>
  </defs>
  <g id="Shoes">
    <path id="Фигура_64" data-name="Фигура 64" class="cls-1" d="M176.9,83.676c-1.141.322-4.686,10.126-6.936,9.939s-6.672-5.279-5.946-7.951c0.53-1.948,8.549-9.394,10.9-10.933s4.182,4.019,4.954,5.963S178.044,83.354,176.9,83.676ZM175.913,71.75c-0.543,1.146-3.7.979-4.955,1.988S168.687,77.51,167,76.719s-0.779-2.4-.991-6.957-0.494-15.981-1.982-18.884-6.987-3.826-12.881-2.982a60.485,60.485,0,0,0-17.835,5.963c-5.9,2.912-10.52,6.828-9.909,8.945s11.394,0.008,12.881.994,2.4,6.274,3.964,8.945,4.259,7.423,4.954,5.963,0.187-7.926,0-12.921,1.423-4.745,3.963-5.963,3.463-3.563,6.936-1.988,2.529,4.8,2.973,9.939,1.5,9.559.991,12.921-4.789,5.493-10.9,6.957-13.133.838-17.835,0-6.95-6.954-9.909-11.927-6.561-12.879-5.945-16.9c0.706-4.6,6.08-7.527,11.89-10.933s9.726-4.918,20.809-6.957,16.1,0.269,20.808,2.982,7.478,8.621,7.927,11.927-3.45,7.5-3.964,9.939S176.455,70.6,175.913,71.75ZM119.434,44.915c-4.069,2.762-7.1,1.757-7.927-.994s4.16-3.929,3.963-5.963-5.876-.127-9.909.994A97.866,97.866,0,0,0,86.735,46.9c-6.209,3.571-11.029,9-11.89,10.933s6.346,10.646,7.927,12.921,3.12,0.28,3.963-.994S80.6,59.836,79.8,57.835s9.815-1.929,14.863-3.976,7.293-5.812,8.918-4.969-0.842,3.873-.991,5.963,4.263,3.411,5.945,7.951-0.9,3.516.991,7.951,4.966,5.978,4.954,6.957-4.689.4-6.936,0-3.434,2.951-5.945,2.982-3.953.362-7.927,1.988-5.233.536-9.909-1.988-6.686-2.192-6.936-3.976-0.141-3.129-2.973-5.963-9.293-7.788-8.918-11.927c0.392-4.323,9.007-10.389,13.872-13.914a72.936,72.936,0,0,1,17.836-9.939c8.6-3.444,14.321-4.023,19.817-3.976s7.433,0.935,8.918,4.969S123.5,42.152,119.434,44.915Zm-32.7,107.34c6.032-.646,4.577-2.542,5.945-5.964s7.054-7.648,7.927-10.933,0.921-16.164,0-19.877-2.905-2.045-3.963-5.964,0.1-7.853-.991-11.926-2.034-2.524-2.973-4.969-2.649-6.071,0-6.957,5,2.1,7.927.994,5.312-3.638,6.936-1.988-0.223,3.388,1.982,8.945-1.061,4.878,1.982,8.945,3.415,6.421,2.972,11.927,2.1,3.782,1.982,6.957-1.419,4.056,0,6.957,1.4,9.454,0,10.933,0.579,9.591-2.973,10.933-11.652,1.091-9.908,1.988,4.372,3.524,7.927,2.981,4.56-1.7,4.954,0-1.383,4.639,0,4.97c2.382,0.568,3.828-2.709,5.945-2.982,1.357-.175,1.314-5.66,1.982-7.951s-2.137-3.467-.991-5.963,3.843-2.61,1.982-7.952-5.229-9.07-4.955-10.932,1.263-10.219,0-14.909,1.964-6.962.991-9.939-3.742-6.431-5.945-8.945-3.042-5.489-1.982-6.957,1.81-5.009,2.973-2.982,6.234,4.553,7.927,8.945,5.141,8.648,4.954,15.9-1.8,13.618-.991,17.89,0.341,7.826,1.982,10.933,2.134,6.42.991,10.932a16.369,16.369,0,0,0,0,9.939c0.907,3.57.579,6.49-2.973,6.957s-8.423-.485-15.854,3.976-11.84,3.936-17.835,4.969-5.434-.4-8.918,1.988-6.579,3.319-13.872,2.982S58.256,175.919,58,174.12c-0.386-2.713,5.466-8.145,14.863-13.914S80.7,152.9,86.735,152.255Zm43.6,33.792c1.192-2.673.927-4.234,1.982-6.957s6.007-3.829,6.936-5.964-2.165-2.292-2.973-5.963,1.161-20.236.991-27.829-0.536-29.417-.991-33.792-7.071-8.855-3.963-10.933c1.5-1,5.391-.306,6.936,0s3.844-.406,5.945-1.988,7.379-2.322,9.909-2.982,4.056,2.562,4.954,3.976,4.192,2.49,3.963,3.975-4.062,1.017-4.954,2.981,1.69,1.039,2.973,1.988,0.414,3.555-.991,5.963-3.585,6.3-3.964,8.945a25.937,25.937,0,0,0,.991,8.945c0.636,2.269.162,6.525-.991,7.952s-0.76,4.009,0,7.951,2.271,7.493,1.982,8.945-0.7,8.082,0,9.939-4.067,2.115-2.973,4.969,1.046,4.119,0,5.963,0.184,3.488.991,4.97,0.343,11.2-.991,13.914-5.851,5.647-8.917,7.951-11.3,6.92-10.9,7.952,4.2,0.266,8.918-1.988,14.532-11.439,15.854-12.921-0.6-5-.991-6.957,1.537-5.685,2.972-6.957-0.142-3.485-.99-5.964,0.129-5.159.99-7.951-0.142-7.442-.99-10.933-0.3-7.751-.991-10.932,0.689-7.052,1.981-8.945,0.289-6.034,0-12.921,1.582-7.526,2.973-9.939-0.672-7.964.991-9.939,4.8-2.781,5.945-.994,1.3,2.825,0,4.97-0.568,7.223-.991,7.951-0.008,4.605,0,5.963-2.307,1.957-2.972,3.976,0.522,7.493,0,13.914a31.546,31.546,0,0,0,1.981,13.915c0.885,2.031-.741,3.3-0.99,6.957s1.431,5.969.99,8.945-3.659,3.919-3.963,5.963,1.992,3.762,1.982,5.964-5.055,5.056-4.955,6.957S167.3,187.023,167,193s-12.961,13.856-16.845,15.9-1.181,2.913-5.945,3.976-13.928,1.841-15.854,0-2.415-8.32-2.972-12.921,1.82-4.512,1.981-7.951S129.141,188.72,130.333,186.047Z"/>
  </g>
</svg>
