<svg id="Equipments_icon" xmlns="http://www.w3.org/2000/svg" width="240" height="240" viewBox="0 0 240 240">
  <defs>
    <style>
      .cls-1 {
        fill: #fff;
        stroke: red;
        stroke-width: 1px;
        fill-rule: evenodd;
      }
    </style>
  </defs>
  <g id="staff">
    <path id="Фигура_247" data-name="Фигура 247" class="cls-1" d="M208,65h-7a40.258,40.258,0,0,0-1-8c-0.913-3.414-3.794-6.61-4-8s1.108-3.732,1-5a10.27,10.27,0,0,0-1-3l8-9a10.8,10.8,0,0,1,3,7c0.014,4.1-1.038,6.268-1,10s1.4,3.683,2,7A41.761,41.761,0,0,1,208,65Zm-8-32c-1.16,1-9.206,7.171-12,9s-10.864,6.464-12,6-1.161-1.225-1-3c0.122-1.342,6.892-3.975,14-9s13.38-6.683,14-6S201.16,32,200,33Zm-15,3-2-1-4-2s-5.523-.146-6,0-2.328-2.1-2-4-0.084-3.219,1-4,4.648-.317,7,0,3.5,1.268,6,2,2.38-1.219,8-1,8,2,8,2a48,48,0,0,0-7,2C191.108,31.171,185,36,185,36Zm-6-1c1.742,0.927,5,3,5,3l-4,2s-1.645-2.024-3-2-5,0-5,0V35S177.258,34.073,179,35Zm-1.9,16.229c2.036-.01,6.916-4.369,6.9-4.229,0,0-.889,2.073,0,3s3-1,3-1,1.843,1.537,2,3a9.463,9.463,0,0,0,1,3,27.167,27.167,0,0,1-1,6c-0.941,3.39-3.815,4.049-8,6s-15.815,11.586-21,16-14.328,18.147-16,19-5.035.366-7,0-2.3-2.8-3-5,3.746-3.171,17-16,16.38-22.9,17-26,2.428-5.683,4-6S174.312,51.243,177.1,51.229ZM160,67l-3,3s-0.474-.439-2-2-3.962-8.439-4-12,1.136-9.609,0-12-7-7-7-7V31s13.989,14.415,15,16-1.011,1.83-2,4-0.474,2.83,0,8A14.69,14.69,0,0,0,160,67ZM150,46c-0.059,1.122-2.063,9.122-1,15s6,12,6,12L143,85s0.011-3.927,0-7-3.185-3.976-3-7,0.328-15.464,3-19-0.355-9.927,0-11a3.24,3.24,0,0,0,0-2S150.059,44.878,150,46Zm-38,89L41,210a16.006,16.006,0,0,1-2,4c-1.177,1.51-1.994,3.672-4,4s-6.981-3.022-6-5,1.116-4.132,4-5,2.433-.717,4-2,94-104,94-104a11.372,11.372,0,0,0,2,3,21.738,21.738,0,0,0,4,2Zm65-46a18.665,18.665,0,0,1-9-4c-2.45-1.78-4-3-4-3l5-4a12.5,12.5,0,0,0,7,4c4.672,0.976,9.352-1.269,10-1s4,5,4,5S181.742,89.9,177,89Zm21-32c0.986,2.195,1,7,1,7l-4,1a26.541,26.541,0,0,0,0-6c-0.428-1.9-3-5-3-5a23.263,23.263,0,0,1-1-4,2.109,2.109,0,0,0-2-2l5-6s0.819,3.415,1,4-1.157,2.708,0,5S197.014,54.805,198,57ZM157,90c2.453-2.146,6-5,6-5a13.467,13.467,0,0,0,5,3c3.648,1.439,6.4,3.341,11,3s12-3,12-3,10.693,10.073,10,11-5.063,2.341-8,2-6.233-2.073-8-2-7.038,3.366-13,3-8.4-2.391-12-4a32.466,32.466,0,0,0-9-2S154.547,92.146,157,90Z"/>
  </g>
</svg>
