<svg id="Equipments_icon" xmlns="http://www.w3.org/2000/svg" width="240" height="240" viewBox="0 0 240 240">
  <defs>
    <style>
      .cls-1 {
        fill: #fff;
        stroke: red;
        stroke-width: 1px;
        fill-rule: evenodd;
      }
    </style>
  </defs>
  <g id="Shield">
    <path id="Эллипс_2" data-name="Эллипс 2" class="cls-1" d="M204.4,98.335c-0.712,1.2-2.744,1.073-4.545,1.137s-1.848.921-3.41-1.137A8.838,8.838,0,0,0,195,96.875,79.6,79.6,0,0,0,180.57,70.331c-0.58-.194-1.021-0.347-1.175-0.411-0.676-.284-12.736,10.505-15.91,13.64s-22.855,17.469-23.864,17.05-3.8-1.864-3.409-3.41c0.319-1.278,14.478-14.858,20.455-20.46s15.421-13.883,15.91-14.776a0.072,0.072,0,0,0,0-.014A78.5,78.5,0,0,0,70.132,59.167a3.445,3.445,0,0,1,.168.522c0.3,1.321,5.466,8.285,7.955,12.475s12.492,20.3,12.5,21.624-2.409,2.33-3.409,2.273S78.839,85.168,75.982,81.286s-9.628-12.351-11.364-13.64a6.179,6.179,0,0,0-2.181-1.308A79.919,79.919,0,0,0,49.65,84.381a7.03,7.03,0,0,1-5.487.314c-1.564-.558-4.3.272-4.533-2.217C53.526,50.931,84.155,29,119.734,29c41,0,75.445,29.1,85.263,68.5A9.84,9.84,0,0,0,204.4,98.335ZM44.005,143.689a79.489,79.489,0,0,0,10.142,21.716c1.617-.371,4.439-2.74,9.334-6.827,5.936-4.957,17.912-16.592,19.319-15.913s5.188,3.035,4.546,4.546-12.451,14.146-15.91,17.05-8.865,9.487-9.091,10.23a3.808,3.808,0,0,0,.219,1.442A78.521,78.521,0,0,0,157.6,190.9a9.087,9.087,0,0,0,1.341-2.774c0.265-1.7-9.687-15.23-12.5-19.323s-14.207-19.314-13.637-21.6c0.224-.894,3.609-2.627,4.546-2.273s8.552,9.755,11.364,13.64,14.593,18,17.046,20.459c1.916,1.924,2.762,3.126,4.25,3.4a79.8,79.8,0,0,0,18.844-22.849,13.29,13.29,0,0,1,5.317-1.007c2.3,0.043,4.242-.148,4.545,1.136a6.689,6.689,0,0,1,.106,1.066C184.478,191.114,154.459,212,119.734,212c-40.3,0-74.253-28.132-84.721-66.517a5.335,5.335,0,0,0,.058-0.545c0.145-3.725,1.809-2.136,4.546-2.273C42.251,142.533,42.619,142.692,44.005,143.689Zm14.93-7.844c-0.251,1.508,4.2,5.669,5.682,7.956s2.079,4.249,3.409,4.547,12.115-6.861,13.637-9.093,4.018-5.713,3.409-6.82a33.586,33.586,0,0,1-2.273-10.23c-0.312-4.547,1.418-13.9,2.273-15.913,1.367-3.209,1.655-4.5,0-6.82s-4.893-6.92-6.818-9.093-4.442-6.933-5.682-6.82-5.192,4.163-6.818,5.683-4.56,3.156-4.546,4.547,5.307,7.446,5.682,10.23,0.387,8.2,1.136,9.093a5.457,5.457,0,0,0,4.546,1.136c1.084-.472,1.486-3.325,2.273-3.409s0.556,2.745,1.136,3.409,5.192,1.137,3.409,2.274-10.486-.1-11.364,1.136-1.757,6.933-3.409,10.23S59.052,135.147,58.936,135.845Zm-10.228,10.23c-0.859,1.145,2.09,4.74,3.409,7.956s2.013,4.483,3.409,4.547,6.662-3.462,6.819-4.547-3.256-4.935-3.409-5.683-1.719-3.515-2.273-3.41a16.641,16.641,0,0,1-4.546,1.137C50.183,146.089,49.057,145.61,48.708,146.075Zm30.683,15.913c0.129,1.415,6.551,6.357,10.228,7.956s7.5,4.248,10.228,3.41c4.372-1.346,6.126-6.38,6.819-9.093s1.136-11.367,1.136-11.367,1.323-1.563,1.137,0,0.032,14.56,3.409,19.323,12.057,4.24,15.91,3.41,9.663-1.8,11.364-4.546c1.33-2.148-2.923-8.5-5.682-12.5s-7.754-10.179-9.091-10.23-6.943,4.081-14.774,3.41-10.5-4.638-13.637-3.41-2.826.452-6.818,3.41S79.275,160.709,79.391,161.988ZM68.027,175.627c-0.1,1.177,11.691,9.745,20.455,13.64s25.877,7.82,40.911,5.683,21.061-5.808,21.592-6.82-3.877-9.684-5.682-10.229-16.694,8.425-32.956,5.683-20.492-4.919-25-7.957-9.207-9.22-10.228-9.093S68.143,174.233,68.027,175.627Zm92.049-9.093c-0.156,1.41,8.015,8.964,9.092,9.093s12.535-11.536,12.5-12.5-4.705-2.134-5.682-3.41-3.466-4.795-4.546-4.546-1.852,3.446-4.545,5.683S160.192,165.488,160.076,166.534Zm-22.728-31.826c-0.29,1.739,4.744,9.18,7.955,12.5s9.756,12.036,11.364,12.5,13.232-12.4,13.637-13.639-3.686-3.985-4.546-7.957,0.33-7.7-1.136-9.093-22.2-2.759-21.592-3.41,21.845-1.919,22.728-2.273,1.4-5.629,3.41-9.094,5.639-6.636,5.682-7.956-3.208-5.708-4.546-9.093-4.681-8.344-5.682-7.957-10.766,7.171-14.773,10.23-10.289,7.572-10.228,9.093,1.05,7.613,1.136,11.367-0.267,6.994-1.136,9.093S137.464,134.011,137.348,134.708ZM171.44,84.7c-0.485,1.335,5.769,11.29,6.819,11.366s3.807-1.717,5.682-2.273,5.538,0.673,5.682,0-3.258-6.007-5.682-9.093-2.948-3.915-4.546-4.547S171.905,83.417,171.44,84.7ZM55.526,81.286c-0.215,1.076,5.081,4.89,5.682,4.547s6.909-7.311,6.818-7.957-3.318-4.275-4.546-4.547S55.793,79.954,55.526,81.286ZM81.664,66.509c1.519-.117,9.909-7.813,19.319-10.23s22.75-1.561,31.819,1.137,10.81,3.1,14.774,5.683,6.868,6.761,7.955,6.82,7.987-7.084,7.954-7.957-11.414-9.19-21.591-12.5a73.932,73.932,0,0,0-31.82-3.41c-11.266,1.269-16.781,4.362-21.592,6.82s-11.18,5.614-11.364,6.82S80.394,66.607,81.664,66.509Zm2.273,5.655c-0.477,1.193,11.252,19.084,12.5,20.487s5.553-2.043,6.819-2.273,7.955-1.332,12.5,0,10.332,4.44,11.364,4.547,7.856-4.814,12.5-9.093,11.541-9.957,11.364-11.367-5.533-5.908-10.228-7.957-11.364-5.331-15.909-2.273-4.834,5-6.819,10.23-1.487,9.856-2.273,10.23-1.513-5.5-2.273-10.23-2.766-10.384-4.545-11.366-7.82-.234-13.637,2.273S84.132,71.676,83.937,72.165Zm27.274,22.761c14.435,0,26.137,11.451,26.137,25.575s-11.7,25.575-26.137,25.575S85.073,134.624,85.073,120.5,96.775,94.926,111.211,94.926Z"/>
  </g>
</svg>
