<svg id="ICONS" xmlns="http://www.w3.org/2000/svg" width="240" height="240" viewBox="0 0 240 240">
  <defs>
    <style>
      .cls-1 {
        fill: #fff;
        stroke: red;
        stroke-width: 1px;
        fill-rule: evenodd;
      }
    </style>
  </defs>
  <g id="Agility">
    <path id="Фигура_55_копия_2" data-name="Фигура 55 копия 2" class="cls-1" d="M122.88,125s9.239-16.083,11.343-19.83,10.049-9.126,18.9-10.386,29.456-4.675,34.975-5.666,18.479-4.1,21.741,1.889,2.988,8.737-1.891,17-16.187,29.011-22.686,40.6-10.824,17.814-10.4,20.773,10.107,8.333,16.07,11.331,11.9,5.173,11.343,7.555,0.21,3.63-5.672,3.777-11.75-.243-17.015-2.833-8.817-3.6-14.178-3.777-10.689.682-13.234-2.833-0.465-4.964,2.836-9.443,9.045-15.678,9.452-20.773-0.484-15.486,1.891-19.83,4.84-8.49,7.562-11.331,3.3-6.14-.945-1.889-10.226,11.2-14.179,13.22-15.107,2.417-19.851,0S122.88,125,122.88,125Zm3.089-1.518s8.613,16.426,10.645,20.213,2.3,13.37-1.392,21.508-11.883,27.327-14.013,32.508-6.473,17.769-13.279,17.3-8.982-2.178-13.332-10.727-15.791-29.227-22.085-40.932-9.222-18.692-11.949-19.924-12.466,4.036-18.2,7.448-10.762,7.245-12.473,5.5-3.178-1.774-.14-6.808,6.52-9.768,11.535-12.811,7.774-5.5,10.809-9.915,5.169-9.371,9.5-9.626,4.44,2.276,6.447,7.464S76.417,140.722,80.5,143.8s13.333,7.915,15.724,12.25,4.567,8.64,5.5,12.46,3.411,6.077,2.1.218-3.963-14.636-3.54-19.049,6.079-14.025,10.668-16.722S125.969,123.482,125.969,123.482ZM29.748,149.564c3.038-5.034,6.52-10.712,11.535-13.755s7.774-4.552,10.809-8.971m74.476,0.222s-18.562.126-22.862,0.2-12.954-4.077-18.5-11.086S66.327,93.1,62.691,88.839,49.842,74.954,53.376,69.124s6.052-6.979,15.652-6.928,33.241-.639,46.54-0.867,20.857,0.371,23.2-1.487,2.117-12.919,1.707-19.575-1.519-12.875.822-13.594,3.034-2.01,6.122,2.993,5.707,10.263,6.118,16.111,1.331,9.421,3.874,14.139,5.973,8.881,4.214,12.848-4.059,2.9-9.595,2.308-18.115.088-22.726,2.3-13.15,8.216-18.1,8.354-9.781.1-13.608-.82-6.97.246-1.157,1.767,14.839,3.183,18.573,5.58,9.7,11.82,10,17.132S126.568,127.06,126.568,127.06Zm20.854-97.393c3.089,5,6.548,10.7,6.959,16.543s0.49,8.989,3.033,13.707"/>
  </g>
</svg>
