<svg id="Equipments_icon" xmlns="http://www.w3.org/2000/svg" width="240" height="240" viewBox="0 0 240 240">
  <defs>
    <style>
      .cls-1 {
        fill: #fcfffd;
        stroke: red;
        stroke-width: 1px;
        fill-rule: evenodd;
      }
    </style>
  </defs>
  <g id="Ring">
    <path id="Фигура_152" data-name="Фигура 152" class="cls-1" d="M191.457,162.057c-3.208,8.254-18.437,24.267-24.634,28.924a33.158,33.158,0,0,1-6.962-.259c-3.172-1.01-2.84.124-2.963-1.977s5.679-6.977,7.9-9.884,15.816-12.9,17.773-14.827,2.644-3.7.987-3.953-6.506,3.3-10.861,5.93c-3.4,2.055-7.7,1.811-13.824,1.977-4.428.12-12.071-2-22.71-6.919S116.454,148.706,114.44,150.2c-1.143.846,4.226,7.478,14.811,12.85s17.119,7.471,17.773,8.9-1.368,3.424-3.949,5.93-4.092,3.659-3.95,5.931-0.464,3.708-2.962,3.954a8.49,8.49,0,0,1-.909.027c-2.506-.862-5.162-1.852-7.977-2.993-22.888-9.271-36.151-17.392-58.257-42.5S44.958,96.692,46.31,84.96c0.824-7.147,7.037-11.536,14.811-21.745,6.629-8.706,16.149-12.45,27.647-10.873,12.132,1.664,17.9,2.526,38.509,13.838s48.424,42.395,58.256,62.272S193.3,157.319,191.457,162.057ZM64.083,74.087c-0.659,7.091,3.1,18.422,5.924,19.769s8.907-.323,9.874,0,2.769,14.582,16.786,27.676,35.638,29.444,44.433,32.618,25.288,6.241,28.635,1.977,0.915-15.576-11.849-32.618-24.189-22.851-26.66-26.688,0.965-9.2,1.975-10.873,3.665-5.8-12.836-14.826-19.5-8.763-25.672-8.9-6.586,2.991-9.874,2.965-8.106-9.4-9.874-8.9S65.447,59.41,64.083,74.087Z"/>
  </g>
</svg>
