<svg id="Equipments_icon" xmlns="http://www.w3.org/2000/svg" width="240" height="240" viewBox="0 0 240 240">
  <defs>
    <style>
      .cls-1 {
        fill: #fff;
        stroke: red;
        stroke-width: 1px;
        fill-rule: evenodd;
      }
    </style>
  </defs>
  <g id="Helmet">
    <path id="Фигура_112" data-name="Фигура 112" class="cls-1" d="M176.769,176.155c-3.577,3.287-7.293,6.544-9.133,6.125s-2.532-5.627-2.029-7.145c0.659-1.988,6.614-7.126,8.118-8.166s3,0.157,4.059,1.021,3.331,0.572,4.059,2.041S180.346,172.869,176.769,176.155Zm-3.044-82.678c-0.864.171-3.46-5.043-5.074-7.145s-4.7-3.9-5.074-5.1-0.65-6.124,1.015-6.124c1.989,0,6.018,3.761,9.133,8.166S174.589,93.3,173.725,93.477Zm-11.162-24.5c-2.686-1.882-6.468-5.128-8.118-9.187-0.779-1.914-3.38-7.549-2.03-8.166s4.963,2.27,10.148,9.187,5.194,9.612,5.073,10.207S165.248,70.861,162.563,68.979Zm-14.207,33.684c-0.863.9-6.311,0.84-9.132,1.021s-7.941.086-9.133,3.062,0.395,7.181,1.015,8.166,3.5,0.485,7.1-1.021,8.354-2.77,9.133-2.041,0.151,5.151,0,16.331a267.67,267.67,0,0,1-2.03,28.581c-1.117,10.358,1.383,23.855,1.015,25.518s-4.548,3.817-9.133,6.124-7.715,4.369-9.133,3.062c-1.594-1.47-5.281-12.319-7.1-23.476s-0.437-26.8,0-29.6,2.752-2.142,1.015-3.062-1.443-12.5-1.015-17.352c0.655-7.41,2.438-14.374,4.059-23.477,1.626-9.128,3.343-19.06,4.059-20.415s4.2,1.488,8.118,3.062,9.1,2.569,11.162,4.083,2.192,5.837,2.03,10.207S149.22,101.765,148.356,102.663Zm-5.073-26.539A61.37,61.37,0,0,1,131.106,70c-3.614-2.34-1.921-3.924-2.03-6.124s-3.249-6.531-2.029-7.145c0.692-.348,8.624,4.126,15.221,7.145s6.635,6.9,7.1,10.207S146.654,77.211,143.283,76.124ZM132.12,55.71c-3.377-1.928-6.481-4.075-7.1-6.124s1.365-3.62,1.015-7.145c-0.173-1.74-.48-1.505-2.029-4.083s-2.083-5.078-1.015-5.1,9.916,6.289,11.162,8.166,0.4,5,1.015,8.166,3.187,5.616,3.044,7.145S135.5,57.638,132.12,55.71ZM102.693,71.021c-6.394,3.864-13.52,5.8-14.206,5.1-0.528-.534.026-2.907,0-5.1-0.028-2.316-.693-4.654,1.015-5.1a110.971,110.971,0,0,0,16.236-7.145c4.673-2.6,14.072-11,14.207-10.207a109.639,109.639,0,0,1-2.03,13.269C117.376,63.2,109.087,67.157,102.693,71.021ZM116.9,45.5c-0.176,1.854-10.5,8.184-17.25,12.249A59.32,59.32,0,0,1,81.383,64.9c-4.017.706-10.737,5.576-11.162,4.083-0.711-2.494,4.707-8.291,7.1-11.228A52.515,52.515,0,0,1,89.5,46.523c6.453-4.406,12.73-5.463,17.723-8.947,3.789-2.643,5.675-8.635,10.69-7.385,1.418,0.354-.868,5.638-1.015,8.166S117.075,43.649,116.9,45.5ZM79.354,70c1.78,1.522.007,2.137,0,5.1s-0.937,3.235-6.088,7.145S64.146,91.3,62.1,92.456c-1.511.855,0.065-7.544,4.059-12.249S77.574,68.477,79.354,70ZM66.162,169.01c0.558,0.783-1.546,3.305-2.029,4.083s-1.6,4.854-3.044,4.083-6.171-4.962-6.089-6.124c0.11-1.547,4.894-4.37,6.089-5.1S65.6,168.228,66.162,169.01Zm1.015-56.14c-1.869-7.831-3.521-13.6-3.044-15.311s6.686-9.884,11.162-13.269,9.85-4.759,17.251-5.1,11.6-3.728,17.251-7.145,7.115-4.728,8.118-4.083-0.692,34.441-1.015,41.85-1.234,51.015-1.014,62.264,2.583,22.271,2.029,23.477-8.322-3.086-14.206-5.1-10.154-4.561-19.281-10.208a127.535,127.535,0,0,1-20.295-16.331c-1.081-1.3,1.572-1.73,4.059-7.145,1.431-3.116,2.194-9.409,2.029-17.353A128.388,128.388,0,0,0,67.177,112.87ZM82.4,110.829c1.38,1.03,5.375.815,10.147,2.041s11.873,5,13.191,4.083c1.3-.905,1.742-4.916,2.03-6.124s2.227-3.843,0-5.1a26.752,26.752,0,0,0-12.177-3.062c-6.009-.241-12.515.34-13.192,1.021C81.587,104.5,81.019,109.8,82.4,110.829Zm-7.1,67.368c1.675-.082,5.242,3.285,10.147,6.124a226.489,226.489,0,0,0,23.339,11.228c5.955,2.25,8.649,2.169,10.148,6.125s2.124,7.42,1.015,8.165-4.381-1.187-6.089-3.062-6.527-3.206-13.192-6.124-13.1-6.249-19.28-9.187-10.689-6.26-11.162-8.166C69.892,181.975,73.62,178.279,75.295,178.2Zm61.9,13.269c3.184-1.5,7.686-4.128,9.133-4.083s2.4,3.931,2.029,5.1-3.037,2.582-7.1,4.083-6.365,3.359-8.118,3.062-1.681-.474-3.044-2.041C127.017,194.056,134.01,192.971,137.194,191.466Zm23.339-87.782c0.84-5.723,2.533-15.82,4.059-16.332,1.253-.42,8.329,9.028,9.133,10.207s-0.8,6.8-2.03,11.228-3.926,12.665-5.073,21.436a84.394,84.394,0,0,0,0,21.435c0.662,6.535,5.6,10.833,6.088,12.249s-1.877,2.226-4.059,3.062-4.084,4.066-6.088,4.083-2.034-5.34-4.059-9.187-3.127-8.338-5.074-16.331-0.142-14.278,1.015-19.394S159.693,109.406,160.533,103.684Z"/>
  </g>
</svg>
