<svg id="Equipments_icon" xmlns="http://www.w3.org/2000/svg" width="240" height="240" viewBox="0 0 240 240">
  <defs>
    <style>
      .cls-1 {
        fill: #fff;
        stroke: red;
        stroke-width: 1px;
        fill-rule: evenodd;
      }
    </style>
  </defs>
  <g id="Weapon">
    <path id="Фигура_116" data-name="Фигура 116" class="cls-1" d="M195.55,47.308c-6.164,11.676-6.167,11.669-13.887,23.177s-18.29,22.064-37.03,41.718-38.866,42.279-43.2,47.9-2.6,8.465-3.085,9.271S91.419,163.437,86,158.555c-3.853-3.473-12.657-10.249-10.8-10.815a47.7,47.7,0,0,0,7.715-3.091c2.967-1.535,19-23.547,29.316-35.537s19.544-24.282,35.487-41.718,19.508-19.608,35.487-30.9,20.434-12.63,21.6-10.816S201.714,35.631,195.55,47.308Zm4.628-17c-1.89-1.788-19.376,19.86-33.944,35.537S96.309,143.73,92.174,147.74s-5.775,6.194-4.629,7.725c1.392,1.858,4.044-.006,7.715-4.635s49.868-53.913,74.06-81.891S202.068,32.1,200.178,30.311ZM95.26,175.551c-0.052,2.979,5.129,5.5,10.8,10.816s4.763,5.976,3.086,9.271-10.45-5.554-15.429-9.271-14.762-13.511-18.515-17S62.315,157.887,58.23,153.92s-14.037-13.29-10.8-15.451c2.962-1.977,6.936.813,10.8,4.635s8.092,7.711,10.8,7.726c2.775,0.015.794-1.553,15.429,10.815S95.312,172.573,95.26,175.551ZM48.972,189.457c3.819-4.587,10.245-11.887,13.886-17s1.931-9.108,10.8-1.545,4.664,7.318,1.543,9.271S68.637,184.878,62.858,191s-9.612,10.35-12.343,13.906-0.718,5.346-3.086,7.725-7.355,3.834-12.343,0c-2.662-2.046-3.2-5.169-3.086-7.725s3.07-5.018,6.172-6.181S45.153,194.045,48.972,189.457Z"/>
  </g>
</svg>
