<svg id="Equipments_icon" xmlns="http://www.w3.org/2000/svg" width="240" height="240" viewBox="0 0 240 240">
  <defs>
    <style>
      .cls-1 {
        fill: #fff;
        stroke: red;
        stroke-width: 1px;
        fill-rule: evenodd;
      }
    </style>
  </defs>
  <g id="Armor">
    <path id="Фигура_82" data-name="Фигура 82" class="cls-1" d="M125.465,178.3c1.8,2.506,11.944.193,15.341,0s9-3.94,14.319-13.252,14.623-28.965,15.342-35.679,3.133-25.383,2.045-28.543-2.683-7.312-5.113-13.252-2.865-12.019-5.114-13.252c-1.491-.817-10.94,2.825-19.433,7.136s-17.664,9.456-18.41,11.213-0.9,14.233-1.023,23.446-0.276,29.951,0,39.756S124.477,176.924,125.465,178.3ZM97.85,182.38c-0.91,1.429,1.155,1.992-2.046,5.1s-7.957.806-13.3-2.038-4.289-6.057-3.068-10.194c1.226-4.155,3.381-3.948,6.137-4.078s3.865,0.863,5.114,1.02a43.432,43.432,0,0,1,7.159,1.019c2.155,0.687,3.975,3.835,4.091,5.1S98.76,180.95,97.85,182.38Zm-6.137-6.117c-3.375-1.423-5.075-2.524-7.16,1.02-1.059,1.8-.8,3.593,2.046,5.1s6.327,2.773,7.159,0S95.088,177.686,91.713,176.263ZM89.667,198.69c-0.494,1.97,12.3,4.087,17.388,7.135s13.361,9.334,14.318,9.175,10.193-7,17.388-10.194,17.813-7.74,18.41-9.174-3.763-2.528-4.091-4.078,1.784-3.967,0-5.1-16.578,2.834-21.479,4.078-11.161.691-16.364,0-13.079-2.8-14.319-1.02,0.465,3.634,5.114,4.078,10.512,4.693,12.273,6.116,3.011,0.893,7.16-1.019a74.454,74.454,0,0,1,15.341-5.1c4.664-.847,7.655-2.644,8.183-1.02s0.26,2.442-8.183,5.1-10.221,3.184-13.3,5.1-3.7,2.591-6.137,3.058-6.746-4.636-9.2-6.116-10.483-5.327-14.318-5.1S90.8,194.174,89.667,198.69ZM167.4,178.3c1.039,2.175,3.619,1.682,6.136-1.019s6.636-4.913,4.091-5.1S165.78,174.915,167.4,178.3Zm4.091,6.116c1,1.614,4.785,1.141,9.2-3.058s7.31-5.235,7.159-7.136,4.774-2.383,4.091-4.077a14.776,14.776,0,0,0-7.159-7.136c-4.2-1.977-4.789.675-4.091,3.058s5.173,2.431,2.045,6.117S170.487,182.805,171.49,184.418Zm-6.137-16.31c1.512,1.507,14.262-7.934,16.364-11.213s4.994-10.956,6.137-16.311,2.4-13.074,3.068-16.31,2.3-8.12,2.046-10.194-3.83-7.2-5.114-7.135-4.309,1.964-4.091,4.077,7.524,4.843,6.137,8.155-3.5,2.056-5.114,2.039-1.83,3.322-2.046,7.136-4.245,11.02-4.091,14.271,3.937,6.931,2.046,8.155-2.246-3.689-4.091-2.038-4.383,7.125-7.16,10.194S163.573,166.334,165.353,168.108ZM47.733,120.2a11.675,11.675,0,0,1,0-8.155c0.968-2.709,6.108-11.008,7.159-14.272s2.54-10.471,3.068-12.233,1.694,2.611,3.068,3.058,3.764-3.247,5.114-3.058-4.511,13.185-7.16,19.369-3.361,6.986-6.137,10.194S48.723,122.476,47.733,120.2Zm12.273,37.717c0.345-1.146-4.3-6.993-6.137-13.252s-4.188-12.9-4.091-16.31,0.167-3.555,3.068-6.117,4.39-2.881,5.114-2.038,1.87,17.067,5.114,24.465,11.6,15.575,13.3,15.291,1.87-.418-4.091-8.155-8.926-20.318-9.205-24.466-2.2-12.69-1.023-15.29,4.767-7.389,7.159-15.291S73.044,76.862,73.3,75.344s-1.58-5.379,5.114-3.058S96.867,78.861,99.9,80.44s9.861,4.391,13.3,8.155,4.64,9.737,5.114,16.31,0.5,28.993,0,34.659,1.895,10.39-2.045,14.272-18.748,16.75-22.5,15.29-11.162-2.51-16.364-3.058-8.51-4.378-9.205-5.1-4.051-2.881-5.114-1.019-3.048,5.952,0,9.174,9.47,3.548,11.25,6.117,0.764,4.113,0,5.1-1.066,6.069-3.068,7.135-4.36-.228-10.228-6.116-7.057-7.486-8.182-11.213c-0.844-2.8,1.366-6.808,4.091-8.155S59.42,159.865,60.007,157.914Zm4.091-94.8c1.406,2.242,5.49.133,7.159-1.019a4.94,4.94,0,0,0,2.046-5.1c-0.376-2.023-3.276-.062-4.091-3.058s3.982-1.668,4.091-3.058-1.242-8.25,0-9.175,4.629-4.812,2.046-4.078-2.3,1.408-5.114,2.039-4.991.164-5.114,3.058-1.172,6.8,0,8.155,1.093,2.61,0,4.078S63.289,61.821,64.1,63.111Zm11.7,4.46c0.959,2.076,11.3,3.907,14.895,5.733s17.736,7.111,20.456,10.194,5.832,2.285,6.136,2.039,0.589-5.009,1.023-6.116c0.876-2.233,1.851-11.673,0-14.271s-12.593-4.312-16.364-6.116S85.4,49.216,83.531,47.82s-1.682-3.05-3.068-4.077-4.854-.378-4.091,2.039a27.87,27.87,0,0,1,1.023,11.213C76.941,62.458,74.917,65.67,75.8,67.571Zm47.624,18.986c1.455,0.806,9.461-5.5,12.273-7.136s13.408-7.078,18.41-8.155,7.483-1,8.183-2.039-1.715-11.772-2.046-14.271,0.159-14.044-1.023-14.272-4.52,8.922-9.205,11.213-6.557,1.692-7.159,3.058-1.868,3.017-5.114,3.058-13.754,4.591-14.319,6.116A28.066,28.066,0,0,0,122.4,75.344C122.987,80.188,122.215,85.89,123.419,86.557ZM111.146,47.82c-0.881,1.024,1.613,2.586,2.045,4.078s-1.2,5.275,1.023,6.116,10.69,0.625,12.273,0,5.033-2.331,5.114-4.078-1.764-1.836-2.045-3.058,2.5-2.533,2.045-4.078-2.684-1.389-5.114,0-5.1,1.317-8.182,1.019S111.948,46.887,111.146,47.82ZM77.394,36.607c-0.394,1.965-.7,2.572,2.045,4.078s4.135,0.494,5.114,0,1.6-.094,1.023,2.039,3.049,3.794,5.114,5.1,7.861,5.33,11.251,6.116,7.05,2.853,7.159,1.019-2.9-4.933-3.068-6.116,0.852-2.439-3.069-4.078S91.969,38.929,90.69,37.626s-3.637-4.625-6.137-5.1S77.662,35.273,77.394,36.607Zm60.344,5.1c0,1.291,4.859.478,6.137,1.019s1.6,3.251,2.045,4.078,2.85,0.428,5.114-2.039,6.97-9.782,6.137-11.213-4.368-3.494-7.16-2.039-5.2,4.6-7.159,6.116S137.738,40.734,137.738,41.7Zm24.547-5.1c-1.857,1.009.211,2.2,1.022,5.1s0.14,10.687,1.023,11.213,4.218-4.641,6.137-6.116,4.1-5.162,3.068-7.136S166.3,34.426,162.285,36.607ZM167.4,54.956c-2.459,3.185-1.927,8.165-1.023,12.233s1.95,7.88,3.068,8.155,2.809-3.462,4.091-4.078,1.979-3.214,1.023-8.155,0.248-12.132-1.023-12.233S168.614,53.38,167.4,54.956Zm3.068,26.5c-0.44,2.775,2.129,6.377,4.091,9.174s3.989,1.986,6.137,3.058,4.333-.324,4.091-1.019-4.15-6.605-5.114-10.194-0.432-8-3.068-8.155S170.832,79.158,170.467,81.46Z"/>
  </g>
</svg>
