<svg id="ICONS" xmlns="http://www.w3.org/2000/svg" width="240" height="240" viewBox="0 0 240 240">
  <defs>
    <style>
      .cls-1 {
        fill: #fff;
        stroke: red;
        stroke-width: 1px;
        fill-rule: evenodd;
      }
    </style>
  </defs>
  <g id="storage_runecharm">
    <path id="Фигура_47_копия" data-name="Фигура 47 копия" class="cls-1" d="M205.978,122.6c-0.439,2.2-2.768,1.162-1.773,3.551a7.753,7.753,0,0,1-1.773,8.875c-3,2.682-18.217,12.816-17.732,14.2s9.244-4.056,12.412-5.325,2.413,0.9,1.774,3.55-3.231,7.783-3.547,10.651-3.045,4.912-3.546,3.55,1.179-9.937,0-8.875-8.411,9.017-8.866,12.426,2,10.051-1.773,14.2-15.426,13.879-15.959,15.976-2.643,7.673-5.319,8.876-7.679,1.019-8.866,0c-2.125-1.823-5.067-6.208,0-12.426s10.341-9.141,10.639-12.426,2.412-7.978,0-7.1-3.487,3.992-5.32,8.876-10.348,14.025-12.412,14.2-13.824,4.213-15.959,3.551,2.36-5.4,0-7.1-13.076-5.177-15.958-3.55-6.337,5.248-7.093,3.55,3.334-12.174,3.546-15.976,4.623-16.812,3.547-23.077-5.5-22.806-5.32-26.627,8.616-15.569,12.412-19.527,13.061-18.436,14.186-17.751-9.935,21.275-8.866,21.3,6.3-5.675,10.639-14.2,10.988-16.14,12.412-14.2,1.12,1.935,0,3.55-3.089,1.58-3.546,3.55-4.417,8.638-3.546,8.876,7.364-7.612,12.412-12.426c1.654-1.577,7.533-6.153,10.639-5.325s-2.582,4.389-1.773,5.325,5.729-5.628,8.866-7.1,12.682-3.1,14.185-1.775-8.225,15.688-7.093,15.976,3.061-4.826,5.32-5.326a4.47,4.47,0,0,0,3.546-3.55c0.409-1.534,4.125-3.375,5.32-1.775s-0.686,6.133,0,8.876,7.547,13.233,8.866,17.751-1.149,8.633,0,10.651S206.417,120.4,205.978,122.6Zm-70.927,10.651c-4.273,3.177-13.549,12.336-14.185,15.976-1.046,5.982,6.658,27.2,8.866,28.4s26.919-17.947,28.37-19.527-7.874-6.794-14.185-1.775-9.97,8.888-14.185-1.775,3.318-9.525,14.185-17.752,7.805-6.726,5.32-8.875S139.324,130.075,135.051,133.251Zm44.33-5.325c-1.47-1.7-6.448-11.31-8.866-15.977s-1.615-11.932-3.547-12.426-8.4,4.786-14.185,7.1c-0.747.3-11.965,4.459-12.412,5.325s5.077,5.415,8.866,5.326,9.655-6.042,12.412-5.326,6.653,13.041,7.093,15.977-6.732,6.485-12.413,8.875a99.2,99.2,0,0,0-10.639,5.326s5.3,3.48,10.639,3.55,7.94-1.845,14.186-7.1S180.85,129.626,179.381,127.926ZM140.444,71.509c-2.117-.469-12.221-11.08-13.333-13.316S127.066,38.717,126,38.219s-9.341,15.742-11.111,16.645S75.26,67.127,73.778,67.07s-14.939-10.8-16.667-11.1,10.285,16.7,10,17.754S56.526,114.246,56,114.785s-15.664,8.238-15.556,9.987,11.918,0.33,13.333,1.109,3.9-1.934,4.444-2.219,23.051,22.69,24.445,24.412-1.634,1.419-2.222,2.22c-0.663.9,0.18,3.449-1.111,3.329s-11.475-10.043-12.222-11.1,0.677-3.287,0-3.329c-1.73-.107-9.06-0.362-10,2.22-0.405,1.112,23.237,22.258,25.556,24.412s0.919,7.085,0,6.658S36,127.582,36,125.881c0-.923,18.676-70.072,20-71.017S125.679,35.714,127.111,36s27.478,26.739,27.778,27.741S142.562,71.978,140.444,71.509ZM59.333,117c-0.318-.635,11.872-45.6,13.333-46.6S119.7,57.425,120.444,57.083s15.321,14,15.556,15.535-2.144,4.181-3.333,5.548-9.624,6.731-12.223,9.987-29.68,44.069-32.222,46.606-3.342,6.832-4.444,6.658S60.042,118.42,59.333,117Zm42.028,18.022c3.35,1.561,7.225,6.034,7.092,10.651s1.627,12.693,0,17.752-4.095,9.453-7.092,8.875-4.345-1.788-3.547-3.55,3-6.768,1.773-8.876-2.134-2.129-3.546,0-3.565,1.05-3.546-1.775,4.212-7.325,3.546-8.876-4.373,1.551-5.32,0,0.653-5.106,1.773-7.1C94.927,137.8,98.01,133.465,101.361,135.026Zm78.02,62.13c4.987-3.037,8.01-6.754,8.866-12.426s2.607-13.775,3.546-15.976,7.093-7.1,7.093-7.1-4.418,14.277-5.32,24.852-3.465,11.134-8.866,14.2-15.38,8.389-15.958,7.1-0.476-3.234,1.773-5.325S173.228,200.9,179.381,197.156Z"/>
  </g>
</svg>
