<svg id="Equipments_icon" xmlns="http://www.w3.org/2000/svg" width="240" height="240" viewBox="0 0 240 240">
  <defs>
    <style>
      .cls-1 {
        fill: #fff;
        stroke: red;
        stroke-width: 1px;
        fill-rule: evenodd;
      }
    </style>
  </defs>
  <g id="steelbow">
    <path id="Фигура_265" data-name="Фигура 265" class="cls-1" d="M213,27l-7,6,3,3v5s-4.046-.087-6-1-1-4-1-4-2.729,2.8-10,10-26.179,12.126-28,13-1.589,3.348-2,5-3.324,2.57-13,4-15.493,2.3-20,3-9,5.313-9,7-2,4-2,4-1.868.483-2-2.031,1.106-2.682,6-7.969,14.917-4.781,27-8,27.051-14.156,28-14,6.033-2.591,10-5,13-10,13-10a27.757,27.757,0,0,1-3-4c-1.134-1.957,2.271-2.753,5-3s2,4,2,4l7-7ZM164,51c1.589,0.506,20-10,20-10s-15.419,12.417-21,16-12.119,4.536-22,7-11.391,2.732-16,4-9,7-9,7l-1,3s-2.441,4.97-3,6-0.9,6.277-2,7a2.779,2.779,0,0,1-4-2c-0.389-2.252.876-4.244,2-6s4-7,4-7-9.184,5.834-11,7-6.3,1.269-7,1-3.037-1.842-3-4.031S104,70,104,70a36.106,36.106,0,0,1-2,4c-0.979,1.585-2.594,2.962,0,4s6.337-5.1,13-10,16.071-8.9,27-11,16-5,16-5l-13,1s9.616-2.831,17-6,16-8,16-8S162.411,50.494,164,51ZM98,87a25.65,25.65,0,0,0,7-3,33.352,33.352,0,0,0-1,6c0,2.106.1,3.576,2,4a18.169,18.169,0,0,0,5,0s1.537,4.455,3,5,2.195,2.113,5,2a34.18,34.18,0,0,1,4,0,12.336,12.336,0,0,1-5,2c-3.39.692-5-1-5-1s-1.512,2.552-3,2-2-4-2-4-2.122-.643-3,0-1,3-1,3H96V99s-2.219-3.667-4-4a25.822,25.822,0,0,1-5-2l5-6A16.291,16.291,0,0,0,98,87Zm-7,32c2.641-3.806,4-12,4-12a7.12,7.12,0,0,1,4-1c2.594,0.018,4,0,4,0s-4.578,11.574-7,15-9,9-9,9a6.173,6.173,0,0,1-1-2c-0.327-1.166-3-2-3-2S88.759,122.23,91,119Zm-5,13-5,3a2.419,2.419,0,0,1,0,2c-0.466,1.191-3,2-3,2a14.552,14.552,0,0,1,5,2c2.649,1.65,2.318,4.672,2,6s-2.391,2.058-3,1a11.52,11.52,0,0,0-7-5,8.918,8.918,0,0,0-7,1,8.442,8.442,0,0,1,5,1,3.562,3.562,0,0,1,2,4s-4.188-1.24-6-1-5.413,1.679-7,7-1.4,3.934-3,19-7.2,18.565-11,24c-3.1,4.435-8.884,9.718-10,11s5.326,3.218,4,4-5.352.235-7,0-3.724,2-6,2,0.678-2.2,1-3-1.193-.653-3-2,1.227-3.008,3-4,0.576-.036,1,0,0.576,2.872,2,3,7.572-7.034,13-14,5.069-7.308,7-13c1.911-5.632,2.476-16.657,3-25s1.566-9.832,4-16,8.471-13.915,11-15,3.378-1.369,5,0c-0.257,1.748-1.207,2.886-3,4a51.373,51.373,0,0,0-5,4s2.037-.845,7-3a15.789,15.789,0,0,0,5.507-3.974c1,0.085,2.025.8,3.493,1.974A5.441,5.441,0,0,1,86,132Zm-25,2,8-16,4,4a41,41,0,0,0-5,4A73.554,73.554,0,0,0,61,134Zm-2,48L189,50l12-9L57,188l2-4v-2Z"/>
  </g>
</svg>
