<svg id="Equipments_icon" xmlns="http://www.w3.org/2000/svg" width="240" height="240" viewBox="0 0 240 240">
  <defs>
    <style>
      .cls-1 {
        fill: #fff;
        stroke: red;
        stroke-width: 1px;
        fill-rule: evenodd;
      }
    </style>
  </defs>
  <g id="Magazin">
    <path id="Фигура_150" data-name="Фигура 150" class="cls-1" d="M212.656,82.154c-2.046,1.435-10.367.882-15.627,1.048s-8.3-.81-10.418-1.048a25.585,25.585,0,0,0-8.335,0c-3.283.663-10.92,1.784-14.585,1.048s-3.422-2.1-3.126-4.193c0.256-1.8,2.7-2.926,6.251-3.145s4.507,0.734,8.335,1.048,8.712,0.2,10.418-1.048,10.067-1.068,16.669-1.048,9.009,0.109,11.46,2.1S214.7,80.719,212.656,82.154ZM174.109,62.236c-0.778.215-1.611,0.281-3.125-1.048-0.715-.627-2.893-1.847-7.293-1.048s-6.261,2.011-9.376,5.241-5.389,9.54-6.251,18.869-0.661,21.7-1.042,26.208-3.046,5.331-9.376,9.434-16.643,10.2-25,15.725S94.188,146.5,89.722,146.1c-3.173-.286-10.6-4.9-15.627-9.434S55.639,118.726,51.176,113.6s-3.786-9.18-3.126-13.628A198.052,198.052,0,0,1,54.3,73.768c2.85-8.433,4.892-8.552,4.167-7.338S55.385,79.775,54.3,84.25s-2.216,13.659-1.042,17.821,2.634,7.46,15.627,19.918,17.975,15.127,21.878,15.724,9.8-4.683,29.171-15.724,19.98-13.1,20.836-14.676-0.349-10.809,0-22.014,3.586-17.657,6.251-22.014,6.6-9.435,11.46-11.531S170,52.189,172.025,54.9,175.442,61.869,174.109,62.236ZM137,88c-0.416,10.166-.187,14.421-1,17s-12.027,10.04-24,17-18.248,10.63-20,11-4.582-1.1-17-11-14.717-13.742-17-18-2.357-13.459-1-20,4.8-20.341,7.719-23.86c1.9-2.3,30.2-3.245,56.258-5.242s31.056-2.857,31.254-2.1-6.037,4.093-9.376,10.483S137.416,77.834,137,88Zm-32.692-4.8c-4.037-2.782-9.266-6.247-10.418-6.29s-3.487,2.82-9.376,7.338-8.335,5.714-8.335,6.29c0,1.2,2.318,2.165,7.293,6.29s8.438,8.234,9.376,8.386,5.88-4.273,10.418-7.338,10-6.238,10.418-7.338S108.345,85.984,104.308,83.2Zm-3.126,12.579a64.973,64.973,0,0,0-7.292,5.241c-0.664.6-4.475-3.664-7.293-6.29s-5.5-3.311-5.209-4.193c0.21-.633,4.663-3.4,7.293-5.242s3.88-4.5,5.209-4.193,3.181,1.17,6.251,3.145,8.571,4.779,8.334,6.29S103.049,94.827,101.182,95.782ZM93.89,87.4a3.145,3.145,0,1,0,3.125,3.145A3.135,3.135,0,0,0,93.89,87.4Zm-44.8-12.58c-1.7-.132-3.893-1.876-3.125-4.193,0.286-.864,2.157-2.2,4.167-2.1s3.521-.2,3.125,2.1S50.794,74.948,49.092,74.816Zm1.042,5.242c-0.755,2.9-2.487,2.375-6.251,2.1s-6.647-.052-7.293-1.048c-1.092-1.683-1.076-2.385.578-3.7,1.671-1.333,6.568-.438,8.8-0.488S50.889,77.155,50.134,80.057ZM45.966,96.83c0.227,2.116-.99,5.081-3.125,5.241s-2.537-1.5-3.125-3.144-4.466-.758-7.293-1.048-4.134-.765-4.167-2.1-0.349-.876,0-2.1,3.657-1.274,10.418-1.048S45.74,94.714,45.966,96.83ZM32.423,110.458c2.895-.281,4.83-0.1,6.251-1.049s3.919-1.933,5.209-1.048,0.712,6.216,0,7.338-6.821,1.084-11.46,1.048-5.322-1.978-5.209-3.144C27.6,109.668,29.528,110.738,32.423,110.458Zm6.251,15.724c-2.393-.868-3.21-2.578-3.125-4.193,0.1-1.823,1.418-2.039,3.125-3.145s5.54-.717,6.251,0,0.243,6.383,0,7.338S41.067,127.05,38.674,126.182Zm-3.125,9.435c2.969-.742,3.611-2.33,6.251-3.145s4.226,0.911,4.167,5.241-2.8,4.882-5.209,5.242a37.2,37.2,0,0,1-9.376,0c-4.632-.408-6.957-1.707-6.251-4.194,0.382-1.343,1.442-1.635,2.084-2.1S32.58,136.358,35.548,135.617ZM40.757,90.54c-1.835-.144-4.782-0.448-4.167-2.1,0.286-.768.281-0.926,2.084-2.1A9.5,9.5,0,0,1,44.925,85.3c1.951,0.276,3.39.012,3.125,2.1S47.17,90.2,45.966,90.54A18.79,18.79,0,0,1,40.757,90.54Zm2.084,54.511c2.918-.23,3.852.135,4.167,3.145s-2.222,3.994-5.209,4.193-5.3-2.876-5.209-4.193C36.781,145.509,39.923,145.282,42.841,145.051ZM60,130c1,0.581.168,8.167,0.552,21.341s1,18.487,0,19.917-2.686-.349-6.251-2.1-3.53-1.659-5.209-4.193c-0.614-.927-0.9-15.528-1.042-22.014S47.072,119.448,48,119,59,129.419,60,130Zm4.719,30.776c-0.56-4.076-1.64-24.7-.719-25.776,0.877-1.029,8.945,7.618,12,10s11.782,8.014,14,8,8.985-2.453,15-6c6.372-3.757,13.138-9.73,14-9s-0.708,16.963,0,25,3.933,19.558,3.019,20.838-18-.465-31.255-3.145-25.332-6.68-26.045-8.386-1.435-3.989,0-5.242S65.279,164.851,64.719,160.776ZM128,133c0.552,0.28-.156,21.541.269,23.582s2.494,1.407,3.126,0,0.518-19.375.6-22.582c0.1-3.888-1.046-2.176,7.456-8.178,8.443-5.96,9.179-7.476,10.544-6.822s0.309,12.809.147,21.858,0.543,20.835,1.042,29.352,2.293,13.194,2.084,14.676-6.264,1.072-12.5,1.048S129.4,185.481,128,184s-4.532-15.186-5-23-0.268-23.561,0-25C123.381,133.957,127.448,132.72,128,133Zm25.273,11c0.028-10.585-.28-25.754,0-29.352a15.168,15.168,0,0,0-1.042-7.338c-0.762-2.326-.371-13.375,0-20.966A47.117,47.117,0,0,1,156.4,68.526c2.273-5.28,7.543-5.863,11.46-5.242s6.779,4.95,6.251,7.338-6.393,3.436-8.334,3.145-3.093-2.367-6.251-1.048-3.763,2.353-4.168,7.338,4.432,5.4,7.293,5.241,4.941-.6,8.335,0,2.9,4.968,1.041,6.29-5.064.957-8.334,0-2.393-.942-5.209,0-3.1,3.616-3.126,6.29,1.915,5.177,3.126,6.29,5.081,0.406,8.334,0,3.668,1.039,5.209,3.145,0.095,6.251-1.041,8.386-5.659,1.41-7.293,1.048-3.148-2.55-5.209-2.1-2.595,2.585-2.084,7.338,1.377,4.743,7.293,5.241,6.667,1.4,7.293,3.145,0.633,2.308-2.084,3.145-5.589-.963-8.335-1.048-3.671-.042-4.167,4.193,1,6.4,2.084,7.338,4.955,0.2,9.376,0,4.639,3.115,4.167,5.241-3.806,2.558-6.25,2.1-5.484-1.185-7.293,0-3.224,4.007-2.084,8.386,5.152,3.218,9.377,2.1,5.338,2.134,5.209,6.29-1.884,6.48-4.168,11.531-4.763,5.078-7.292,5.241-3.6-.94-4.168-2.1c-0.743-1.516-1.492-4.8-2.083-10.483C152.667,166.477,153.245,154.588,153.273,144Zm7.292-45.076c0-4.893,2.313-5.2,7.293-5.242s10.759,0.682,19.795,0,13.613,0.038,16.668,1.048,1.679,3.239-1.041,5.242-7.517,2.375-13.544,2.1-9.584-.365-10.418-1.048-3.9-1.12-5.209,0-5.985,2.228-8.334,2.1S160.565,101.062,160.565,98.927Zm27.088,36.69c2-1.111,9.39.724,12.5,2.1s2.9,7.255-1.042,8.386-7.955-2.419-10.418-2.1-9.565-1.224-13.543-2.1-3.828-2.217-5.209-2.1,0.357,2.711-4.167,2.1-5.454-2.228-5.21-4.193c0.384-3.09,2.313-2.273,7.293-3.145s11.655-.029,13.544,0S185.655,136.727,187.653,135.617Zm-26.046-15.725c1.8-1,6.773-1.577,17.711-1.048s16.573,1.274,17.711,1.048,5.133,2.8,3.125,6.29-11.812,2.434-15.627,2.1-10.773-1.981-15.627-2.1-8.651-.914-8.335-3.145C160.693,122.136,159.807,120.89,161.607,119.892Zm0,38.787a15.536,15.536,0,0,1,.219-3.4c1-1.416,3.159-1.772,4.99-1.845,2.537-.1,6.554-0.23,13.544,0a156.18,156.18,0,0,1,19.794,2.1c3.111,0.652,6.23.636,6.251,4.193s-3.348,3.4-8.334,3.145a115.5,115.5,0,0,1-13.544-1.048c-4.966-.784-5.91-1.534-9.376-2.1s-6.259.949-8.335,1.049C164.875,160.869,161.887,161.081,161.607,158.679Z"/>
  </g>
</svg>
