<svg id="Equipments_icon" xmlns="http://www.w3.org/2000/svg" width="240" height="240" viewBox="0 0 240 240">
  <defs>
    <style>
      .cls-1 {
        fill: #fff;
        stroke: red;
        stroke-width: 1px;
        fill-rule: evenodd;
      }
    </style>
  </defs>
  <g id="Bow">
    <path id="Фигура_269" data-name="Фигура 269" class="cls-1" d="M212,30c-0.6,1.064-4.536,9.92-7,12s-8.753,10.539-12,11-33.91,13.794-47,22-26,21.005-28,23,2,2.445,0,4-6.816.081-9-1-2.69-4.035-2-5c1.168-1.636,4.184-1.631,5-2s16.477-16.223,34-26,37.628-16.863,43-18,10.285-8.912,14-12,5-15,5-15S212.605,28.936,212,30ZM111,104l-10,12-3-4,9-10Zm-11,16a10.057,10.057,0,0,0-8,4c-2.806,4-14.019,18.078-21,32s-12.182,41.229-13,44-14.138,15-16,15-6.551,0-7-2,7.459-3.152,11-6,8.378-8.6,9-10,5.22-29.684,12-44,22.2-33,24-35,2.17-7.471,4-8,2,6,2,6S100.415,120,100,120Zm96-66L61,196v-3L191,56Z"/>
  </g>
</svg>
