<svg id="ICONS" xmlns="http://www.w3.org/2000/svg" width="240" height="240" viewBox="0 0 240 240">
  <defs>
    <style>
      .cls-1 {
        fill: #fff;
        stroke: red;
        stroke-width: 1px;
        fill-rule: evenodd;
      }
    </style>
  </defs>
  <g id="str_imt" data-name="str imt">
    <path id="Фигура_50_копия_2" data-name="Фигура 50 копия 2" class="cls-1" d="M42.539,79.319c3.1-.685,2.131-5.846.534-9.562s0.762-8.682-.534-11.156S36.255,53.779,34,55.415,28.463,62.167,30.8,67.1s3.843,8.335,5.869,10.093S40.455,79.78,42.539,79.319Zm7.47-6.906c3,2.3,5.321,2.873,8,1.594s-0.044-5.906-.534-10.624a123.885,123.885,0,0,1-.534-13.28c0.044-3.2-2.752-3.78-5.869-3.719s-5.611,4.578-5.869,7.968-0.689,5.7,0,9.031C46.021,67.322,47.619,70.577,50.009,72.414Zm22.41-3.719c-0.1,3.618,4.781,6.115,8,6.906a26.443,26.443,0,0,0,9.071.531c1.393-.341,4.527-0.336,3.2,2.125a27.853,27.853,0,0,0-2.668,9.562C89.921,90.331,89.3,90.9,86.291,92.6s-3.457,4.2-4.8,3.187-1.31-2.462,0-3.719,2.933-3.037-.534-4.25-5.8-1.829-7.47,1.062-2.885,5.133-4.268,7.437-4.174,6.1-3.2,6.906,4.693-.849,6.936-2.125,6.014-1.969,5.336,0S60.68,142.534,60.68,142.534s8.047-28.8,6.936-29.748-6.689,4.538-8,3.718-0.941-12.63-1.067-17,1.5-11.017,2.134-13.28,0.812-3.492,0-3.718-6.4,8.555-7.47,9.031-2.135-1.607-1.6-5.312,1.156-6.16,0-6.374a5.5,5.5,0,0,0-4.8,1.594c-1.785,1.677-2.185,4.66-3.735,4.25s-2.058-2.4-3.735-2.125-4.065.8-4.8,3.718,1.226,8.978,3.2,13.281,3.544,6.89,4.269,9.562-0.216,5.391,2.668,6.374,8.016,1.768,9.071,3.719,1.562,2.785,1.067,5.312-1.1,4.79-2.668,3.718-5.526-.193-7.47-1.593-2.769-.219-3.2,1.593-0.3,4.967-3.2,5.313-5.233,1.14-5.336,2.124,7.946,6.9,10.138,7.969,7.018-.245,9.071.531,1.06,2.316,7.47,4.25,9.755,2.411,17.074-.532,16.335-6.587,20.276-9.03,6.444-3.615,3.2-5.312-3.547-1.256-5.869-4.781-3.705-4.772-6.936-3.188-13.15,6.4-14.406,5.312-1.761-4.354,0-5.843,10.656-4.252,13.873-7.437,8.452-12.144,11.2-14.874,5.567-3.695,6.936-8.5,1.407-14.2,0-19.655-1.438-8.379-4.8-9.562-6.856-2.688-11.2-2.656-5.445.531-9.6,1.062S72.539,64.489,72.419,68.695ZM59.613,50.634c0,6.3,2.127,16.012,4.269,18.061s4.89,1.815,5.869-.531,1.2-4.414,3.2-5.843,0.17-7.683,0-10.624,0.329-11-1.067-13.28-3.583-2.851-5.869-1.062S61.492,39.681,60.68,43.2A28.817,28.817,0,0,0,59.613,50.634Zm17.074-4.781C77.141,51.277,77.9,59.38,80.956,60.2a22.72,22.72,0,0,0,9.071,0c1.584-.386,2.221-3.13,1.6-5.843s-0.085-8.524-.533-11.687-0.282-6.645-3.2-7.968a7.59,7.59,0,0,0-8,1.062C77.731,37.46,76.2,40.085,76.687,45.853Z"/>
    <path id="Фигура_54_копия_4" data-name="Фигура 54 копия 4" class="cls-1" d="M203.162,151.164c-2.6,1.932-2.4,2.27-5.3,2.371s-3.041-.229-5.3,2.372-7.322,4.995-10.606,6.52-7.816,2.9-7.659,3.557c0.285,1.2,3.476,11.05,4.124,14.82,0.471,2.734.918,9.795-1.178,11.856a5.609,5.609,0,0,1-7.66,0c-2.758-2.5-2.872-8.733-1.767-13.635s3.171-10.6,2.946-11.855c-0.162-.9-3.658,1.34-7.071,1.778-5.017.644-9.592,0.309-9.427,1.186,0.294,1.551,2.986,12.72,3.536,17.783,0.552,5.093,1.078,12.012.589,16.6-0.5,4.733-1.667,9.385-7.07,9.485-5.427.1-6.787-5.9-7.071-8.892a79.7,79.7,0,0,1,1.179-18.969c1.2-6.641,3.634-14.114,4.124-16.005,0.272-1.051-4.338-.632-9.427-1.779-3.985-.9-8.793-3.535-8.838-2.964-0.14,1.771,1.521,5.846,2.357,9.485,1.335,5.813,2.023,12.771,0,16-1.317,2.106-4.577,3.986-7.66,1.779-3.423-2.452-3.427-9.648-2.356-14.82s4.41-13.183,3.535-14.227-5.222-2.066-8.249-3.557-6.154-3.777-7.659-4.149c-1.129-.28-2.468-0.072-4.714-1.779s-3.486-4.035-3.535-4.742c-0.149-2.175,4.045-4.735,7.659-8.3,1.87-1.843,8.285-8.409,11.784-11.263a46.337,46.337,0,0,1,17.087-8.3c9.768-2.2,17.032-2.035,26.513,1.778,6.475,2.6,15.9,8.526,22.389,12.449s10.647,5.757,15.319,8.3,8.485,4.318,8.249,5.928S204.642,150.065,203.162,151.164Zm-52.143-14.82a9.782,9.782,0,1,0,9.722,9.782A9.753,9.753,0,0,0,151.019,136.344Zm-15.614-2.963c-4.5,1.849-7.935,4.856-10.605,7.113s-4.115,5.039-4.889,5.845c-0.966,1.006,1.128.759,1.943,3.047,0.79,2.218.946,4.946,6.669,6.622,2.567,0.752,5.831,1.717,9.053,2.575a17.762,17.762,0,0,1,2.222-26.856C138.236,132.248,136.766,132.821,135.405,133.381Zm48.314,11.263a147.677,147.677,0,0,1-14.73-8.892,29.028,29.028,0,0,0-5.3-2.829,17.763,17.763,0,0,1-.742,27.048,22.559,22.559,0,0,0,3.093-.508,54.881,54.881,0,0,0,14.73-7.113c2.812-1.955,5.652-3.473,5.892-4.743S186.312,145.794,183.719,144.644Zm-5.218,5.923c-1.56,1.394-3.463,2.8-4.8,1.783a3.269,3.269,0,0,1-.589-4.15c0.5-.6,3.44-1.222,5.3-0.593S179.985,149.239,178.5,150.567Zm-24.242,1.19a6.723,6.723,0,0,1-6.481.593c-1.887-1.008-3.859-3.9-2.356-4.743,0.893-.5,2.2-0.077,3.535,1.186,0.952,0.9,3,.688,4.124,0,1.438-.878,2.381-1.843,3.535-1.186C157.946,148.365,156.332,150.42,154.259,151.757ZM195.5,128.045c-3.363.524-8.019-3.313-13.552-6.52-6.381-3.7-12.123-7.245-22.389-9.485a50.192,50.192,0,0,0-25.924,1.186,55.885,55.885,0,0,0-15.908,8.3c-3.8,2.7-8.534,8.444-12.373,4.742-2.344-2.259-.3-4.233,4.124-8.3s13.479-10.429,22.389-13.041,23.865-2.545,33,0c9.681,2.7,22.312,10.09,27.1,13.041,4.474,2.756,11.41,4.115,11.783,5.335S199.571,127.412,195.5,128.045Z"/>
  </g>
</svg>
