<svg id="ICONS" xmlns="http://www.w3.org/2000/svg" width="240" height="240" viewBox="0 0 240 240">
  <defs>
    <style>
      .cls-1 {
        fill: #fff;
        stroke: red;
        stroke-width: 1px;
        fill-rule: evenodd;
      }
    </style>
  </defs>
  <g id="storage_equip">
    <path id="Фигура_64_копия_2" data-name="Фигура 64 копия 2" class="cls-1" d="M199.088,149.9c-2.121,9.507-1.087,32-1.555,34.19s-9.515,7.067-21.774,15.541-23.392,7.735-28,6.217-11.439-6.319-12.442-7.771,2.785-.864,3.11-3.108-0.859-9.156,0-13.987,3.449-10.871,6.222-13.987c1.426-1.6,6.644-7.187,10.887-9.325s8.592-3.562,10.887-7.77,3.409-9.686,4.666-12.433a35.474,35.474,0,0,1,6.221-9.325c2.487-2.454,4.644-4.849,10.887-4.662s11.761,10.322,12.442,12.433S201.21,140.388,199.088,149.9Zm-3.11-13.987c-1.007-1.933-6.427-6.048-9.332-6.217s-11.364,6.074-14,10.879-2.874,11.72-3.111,15.541,0.691,7.04-1.555,7.771-9.269-1.185-12.442,1.554-5.25,5.758-7.777,9.324-4.844,10.83-4.666,12.433c0.677,6.083,1.489,10.042,4.666,12.433s16.306-.414,21.774-3.108,22.831-12.1,23.33-13.987,0.472-17.385,1.555-24.866S196.985,137.841,195.978,135.909ZM185.09,44.216c-1.858.782-4.558-2.741-7.776-4.662s-3.04-6.358-1.555-9.325c0.356-.712.851-1.579,3.11-3.108s3.98-2.924,9.332-1.554,6.235,8.249,6.221,10.879S186.949,43.434,185.09,44.216Zm-4.665,3.108c-1.355,1.218-2.567,1.81-4.666,0s-4.319-2.287-4.666-4.662a8.356,8.356,0,0,0-.247-1.29c0.035,0.042.115,0.061,0.247-.265,0.365-.9,3.734-1.058,6.221,0S181.779,46.106,180.425,47.324Zm-4.666,6.216c-0.317,2.626-7.527,6.1-7.777,9.325s1.319,3.19,0,4.662-3.137,1.378-3.11,4.662-3.592,3.306-6.222,6.216-2.718,2.255-4.666,0-4.291-3.8-4.665-6.216a7.246,7.246,0,0,0-.181-0.91,2,2,0,0,0,.181-0.644c0.338-1.832,7.326-4.759,9.331-6.217s1.739-2.282,1.556-4.662,3.213-6.17,4.666-7.771,2.647-4.1,4.665-4.662S176.075,50.915,175.759,53.541ZM149.138,71.28C149.029,71.431,149.024,70.9,149.138,71.28ZM186.646,112.6c-2.264.586-13.423-5.395-18.664-9.325s-5.811-4.62-7.776-3.108-5.878-3.472-12.443-7.77-12.331-10.129-14-12.433-5.82-4.287-12.443-10.879-7.786-11.651-6.221-12.433c2.139-1.069,17.835,10.654,23.329,13.987s31.227,23.563,40.438,29.528S188.91,112.011,186.646,112.6Zm-35.772-26.42c-5.1-3.2-11.583-9.75-12.443-9.325s-2.607.368-1.555,1.554,15.517,11.033,17.108,12.433,4.354,3.926,4.666,3.108S155.976,89.377,150.874,86.177Zm-31.106,17.1c2.473-.824,9.238-9.792,9.332-12.433s0.521-4.725,1.555-4.662,8.182,6.929,9.332,7.771-42.595,62.534-46.659,68.381-34.68,50.412-35.772,51.285-1.555,0-1.555,0,5.624-20.03,10.887-29.528,20.878-33.456,26.44-41.961,22.915-28.624,23.329-32.636S117.294,104.1,119.768,103.272ZM80.885,187.194c1.248-2.81,37.024-52.7,40.438-57.5s8.022-14.686,10.887-18.649,8.57-14.036,10.887-13.987,5.393,4.466,7.777,4.662,7.206-1.086,6.221,0c-0.779.86-6.015,5.76-9.825,9.65,4.795,2.246,10.6,4.934,12.936,5.891,4.282,1.755,17.1,2.939,17.108,4.663s-2.389,5.9-4.666,6.216-0.022-2.08-3.111-3.108-6.145-.673-6.221,1.554a4.627,4.627,0,0,0,3.111,4.662c1.983,0.771,2.2.993,1.555,3.109s-1.658,2.48-3.11,6.216-1.917,7.61-3.111,9.325-6.676,1.554-10.887,4.662a52.424,52.424,0,0,0-10.887,10.879c-2.594,3.629-4.243,5.4-4.666,9.324s-1.8,8.118-1.555,12.433,0.035,4.832-1.556,4.663-5.86-6.626-6.221-10.879-5.129-.637-6.221-1.554c-0.744-.625-6.239-8.319-9.674-13.17-5.874,7.871-21.2,30.772-26.1,34.927-5.606,4.756-23.129,20.155-24.885,20.2s-4.822,1.376-3.111,0S79.638,190,80.885,187.194Zm41.993-15.541c2.75,0.263-.289-10.309,6.222-18.649s7.937-15.5,14-20.2,6.364-6.742,9.332-7.77,6.8-1.447,6.221-3.108-9.608-2.062-10.887-3.109c-0.529-.433-2.491-1.575-4.6-2.762-5.673,7.583-21.77,31.5-23.392,33.845-1.431,2.065-3.524,7.588-5.882,11.408C116.954,165.761,121.2,171.493,122.878,171.653ZM46.669,106.38c-0.213,2.55,11.074,13.211,14,17.1s10.1,10.764,12.442,10.879,10.215,8.581,12.442,9.324,5.681-1.746,4.666-3.108-1.649-7.544-3.111-7.771-3.392,2.624-6.221,1.555-1.495-6.2-3.111-9.325-6.194-3.946-12.442-10.879S54.047,98.059,52.89,98.61,46.906,103.537,46.669,106.38ZM56,95.5c1.537,4.3,11.8,17.841,15.553,20.2s7.491,6.963,10.887,4.662,3.246-13.6,7.776-17.095,13.129-9.809,15.553-9.324,5.45,0.714,4.666,3.108-5.858,1.717-7.776,3.108-9.326,7.9-10.888,10.879-5.826,8.743-4.666,10.879,7.426,0.163,7.776,1.554-1.646,6.023,0,6.216,5.677-6.9,9.332-10.879,11.8-9.841,10.887-10.878-3.461-2.492-7.777,1.554-9.358,10.588-10.887,10.878-2.521-1.2,0-4.662,12.676-10.877,14-12.433,0.168-2.88,1.555-3.108,3.571-.193,4.666-4.662,1.821-6.215,0-7.771-6.085.228-6.221-1.554,3.959-4.629,4.666-4.662,4.575,4.307,4.666,3.108,0.687-6.9-1.555-7.771-4.66-2.783-4.666-4.662,1.982-2.427,1.555-4.662-5.761-10.78-9.332-10.879-4.919,5.246-3.11,6.216,7.523,3.239,4.665,7.771-2.521,8.128-1.555,9.325,3.959,0.972,3.111,3.108-0.836,6.38-3.111,4.662a92.762,92.762,0,0,0-9.332-6.216c-1.529-.681-3.1-4.305-4.666-6.217s-1.614-3.852-4.666-4.662-6.669-.128-7.776,1.554,2.793,2.786,3.111,4.662a4,4,0,0,1-3.111,4.662c-2.4.452-4.5-.355-4.666-3.108s0.816-4.467,0-4.662A5.935,5.935,0,0,0,68.443,75.3c-2.372,2.621-3.169,4.178-1.555,7.771s4.316,2.494,4.666,4.662-0.739,7.221-3.111,7.771-4.238-1.229-6.221-1.554S58.34,92.1,60.667,90.839s6.033-3.2,4.666-4.662-2.78-2.459-4.666-1.554S56.137,88.542,56,90.839,55.191,93.235,56,95.5ZM45.114,87.731c-0.582,2.793.94,8.007,3.111,7.771s4.885-5,4.666-7.771-1.45-6.188-3.111-6.216S45.783,84.52,45.114,87.731ZM52.89,73.744c-0.363,3.447.282,6.863,3.111,7.771s5.865-.836,6.221-3.108,0.148-3.708-1.555-4.662-1.407-4.923-1.555-6.216-3.159-2.185-4.666,0S53.158,71.2,52.89,73.744Zm10.887-9.325c0.408,4.491-.108,7.3,1.555,7.771s2.714-2.8,4.666-3.108,3.734-3.8,3.111-4.662-1.148.263-1.555-3.108,2.281-8.692,0-7.771-4.4,3.052-6.221,4.662S63.37,59.929,63.777,64.419ZM74.664,50.432c0.9,1.755,1.068,2.29,4.666,1.554s3.756-.335,6.221,0,5.528,0.3,4.666-1.554S85.6,40.6,84,41.108s-6.185,4.832-7.776,6.216S73.764,48.677,74.664,50.432ZM76.22,58.2c-0.558,2.091-.354,5.07,3.111,6.216s6.465,0.994,7.776,0,4.642-6.52,3.111-7.77-4.783-1.456-7.776-1.554S76.755,56.2,76.22,58.2Z"/>
  </g>
</svg>
