<svg id="ICONS" xmlns="http://www.w3.org/2000/svg" width="240" height="240" viewBox="0 0 240 240">
  <defs>
    <style>
      .cls-1 {
        fill: #fff;
        stroke: red;
        stroke-width: 1px;
        fill-rule: evenodd;
      }
    </style>
  </defs>
  <g id="skill">
    <path id="Фигура_45" data-name="Фигура 45" class="cls-1" d="M186.925,184.736c-2.374-.026-25.092-22.388-26.482-22.82s-45.125,10.415-48.149,14.413-7.623,37.938-12.037,39.633-70.213-62.711-72.224-66.056c-0.841-1.4,20.6-94.16,22.871-96.081S137.735,24.154,141.184,25,210.59,87.9,211,91.056,189.869,184.768,186.925,184.736ZM172.481,86.252c-4.435-3.474-34.063-31.967-34.909-33.629s3.383-16.058,2.408-16.814a2.867,2.867,0,0,0-3.611,0c-1.161.949-4.993,16.961-6.019,16.814s-51,20.338-52.964,20.417S60.516,58.152,59.33,58.629s-6.166,3.071-4.815,4.8S70.544,77.018,71.367,79.046,58.618,132.53,59.33,135.494s24.539,27.922,26.482,30.026,7.627,7.772,6.019,10.809-3.406,4.927-6.019,3.6S62.983,158.274,59.33,154.71s-8.643-7-8.426-8.407,6.945-7.264,4.815-8.407S38.89,147.589,40.07,148.705s20.724,19.534,28.89,26.423S98.2,202.335,99.053,201.55s4.285-26.373,3.611-28.824-12.351-13.7-20.463-21.619-13.944-13.653-14.445-15.613,9.83-51.778,10.834-54.046,52.477-23.675,54.168-22.819S169,92.775,171.277,93.458s2.282,0.379,3.611,0C177.047,92.843,176.915,89.726,172.481,86.252Zm30.093,9.608c-3.512-.62-29.4,10.122-30.093,10.809-1.886,1.882-7.436,39.94-7.223,42.036s19.127,23.151,20.464,22.82,11.033-43.865,9.629-44.438S178.786,140.224,177.3,139.1s3.312-27.422,4.815-28.824S206.755,96.6,202.574,95.86Z"/>
  </g>
</svg>
