<svg id="Equipments_icon" xmlns="http://www.w3.org/2000/svg" width="240" height="240" viewBox="0 0 240 240">
  <defs>
    <style>
      .cls-1 {
        fill: #fff;
        stroke: red;
        stroke-width: 1px;
        fill-rule: evenodd;
      }
    </style>
  </defs>
  <g id="_2h_blunt" data-name="2h blunt">
    <path id="Фигура_258" data-name="Фигура 258" class="cls-1" d="M167.257,142.529c-0.634.122-14.033-10.06-13.813-11.569,0.262-1.789,46.916-48.7,47.756-49.247s14.166,11.065,14.79,12.609S167.89,142.408,167.257,142.529ZM158,120.154l-10.837-9.446s17.9-18.879,22.09-23.324,9.564-11.055,10.727-11.55S192.306,85,191.8,86.321,158,120.154,158,120.154Zm9.535-63.829L182,52.928l-2.648,13.884Zm9.513,16.388c-1.709,1.793-37.46,38.824-40.178,39.566s-6.032-2.725-8.97-5.37-5.232-5.057-4.8-7.2c0.469-2.32,33.474-39.431,36.182-41.731s6.672,2.509,9.012,4.373S178.761,70.921,177.052,72.714ZM142.784,86.326c-3.946-.164-7.271,2.607-7.426,6.189s2.917,6.618,6.862,6.782,7.271-2.607,7.427-6.189S146.73,86.49,142.784,86.326Zm17.261-19.233a6.993,6.993,0,1,0,6.841,7.281A7.089,7.089,0,0,0,160.045,67.094Zm-1.41,8.938a2.549,2.549,0,1,1,3.17-2.367A2.818,2.818,0,0,1,158.635,76.031ZM142.394,95.307a3,3,0,1,1,3.192-2.866A3.024,3.024,0,0,1,142.394,95.307Zm7.49-32.717c-3.665,4.593-25.369,28.186-25.369,28.186s-9.08-7.956-9.816-9.4,13.077-14.907,18.942-21.456S147.6,44.5,147.6,44.5l10.837,9.446A68.515,68.515,0,0,0,149.884,62.589ZM151.9,39.683c-1.364.6-5.65-.166-7.188,0.7s-25.984,30.154-29.755,35-2.218,5.883-3.365,6.857-6.75,2.837-8.295,2.654S91.165,75.313,91.528,73.413c0.238-1.25,36.976-44.891,39.46-46.593s6.071-.283,8.166.339,4.227,2.16,8.925,6.368S153.266,39.088,151.9,39.683Zm-46.781,2.225,9.186,0.381-8.555,8.641Zm-9.267,96.658s1.71,3.245,2.889,4.118,5.95,4.245,5.95,4.245L64.681,188s-1.856,5.083-4.256,3.822-6.432-5.109-6.983-7.372c-0.4-1.645,2.517-3.617,4.086-4S92.392,142.51,92.392,142.51Zm2.171-2.909c-0.136-1.516.284-1.9,2.171-2.908s11.769-12.459,12.9-14.458,2.215-3.907,2.215-3.907,2.509,2.55,3.909,4.161,8.969,5.37,8.969,5.37a25.813,25.813,0,0,1-3.1.871c-1.988.449-6.235,6.588-10.77,12.547s-3.628,3.96-4.343,5.817-4.187.819-6.124-.254S98.162,137.173,98.026,135.656Zm21.5-24.1c1.118-.358,2.562-3.808,3.323-5.859s2.269,4.337,4.843,6.2,5.95,4.246,5.95,4.246a25.317,25.317,0,0,0-2.128,1.911c-1.033,1.05-3.192,2.866-3.192,2.866l-5.95-4.246S118.405,111.918,119.522,111.559Zm81.048,17.277-12.248-.508,11.747-11.508ZM50.378,187.443s1.252,3.462,3.065,4.993,5.649,2.665,5.649,2.665-8.079,8.038-8.615,10.348-4.073,8.039-8.663,9.355c-4.84,1.387-12.144-5.392-10.629-10.458s6.062-8.082,8.71-8.362S50.378,187.443,50.378,187.443Z"/>
  </g>
</svg>
