<svg id="ICONS" xmlns="http://www.w3.org/2000/svg" width="240" height="240" viewBox="0 0 240 240">
  <defs>
    <style>
      .cls-1 {
        fill: #fff;
        fill-rule: evenodd;
      }
    </style>
  </defs>
  <g id="Material">
    <path id="Фигура_16" data-name="Фигура 16" class="cls-1" d="M199.842,104.366c-1.428,2.015-2.476,3.835-2.614,5.815-0.333,4.8-1.475,4.8-4.872,4.789s-9.665,4.782-9.752,2.379,4.259-7.835,4.877-9.595S203.227,88.7,202.1,88.6,185.053,106.548,182.6,107.74a22.982,22.982,0,0,1-14.648,2.364c-7.157-1.224-8.68-6.263-12.226-7.251s-5.811-5.852-4.894-7.234-0.917-6.7,0-7.22,7.18-1.145,12.232.047,14.374-2.688,14.656-4.749-1.3-7.013-2.441-9.623S171.39,66.8,170.4,62.032c-0.615-2.958.47-7.781,1.384-11.023,1.979,0.026,3.363.051,3.5,1.436,0.257,2.615-2.1,11.151,2.441,14.432,3.429,2.475,9.677-3.109,12.2.062,2.9,3.651-2,8.468,2.437,14.418s14.064,3.249,14.608,7.259C207.479,92.413,200.812,98.287,199.842,104.366ZM170.4,71.647c-1.748,3.976-.916,9.838-4.887,9.595s-5.2.523-7.335-.031-2.108-.775-2.447-2.416,1.226-2.766,4.893-7.194,7.445-5.138,7.333-4.773S172.146,67.672,170.4,71.647Zm-19.563-9.72c-0.161,4.126,1.73,5.236-2.449,7.207s-8.946,4.354-9.8,7.176,2.674,5.122,4.9,4.837,3.965,0.251,2.449,2.418-7.083.917-9.8,2.368-2.556,7.315-4.906,4.8-2.279-3.9-4.908-7.248-6.483-4.509-7.367-9.674,1.9-12.3,2.457-14.451-1.046-8.917,2.455-7.217,3.942,5.317,4.91,9.667,3.662,10.706,4.906,9.661,1.286-8.822,2.453-12.031,0.5-10.416,2.451-14.436,12.249-7.143,12.249-7.143l-0.386-.219a4.8,4.8,0,0,1,5.28,2.658c0.52,0.941,1.031,1.791,1.55,2.595a25.837,25.837,0,0,0-1.55,4.623C154.985,51.46,151,57.8,150.836,61.927Zm-17.153-7.318c-1.994-.106-5.381-7.817-7.361-7.272s-8.368,1.333-9.824,7.173-4.047,6.746-4.916,4.8-4.2-6.452-4.918-4.852,0.869,6.655,2.459,9.663-0.168,8.228-4.92,9.626-2.552-1.1-2.461-4.838-9.6-11.1-9.851-12.121-5.209.72-7.4,2.374,7.21,1.867,7.4,4.869-2.572,7.951,0,12.072,11.06,5.475,9.851,9.7-5.915,1.578-9.851,4.789-6.667.423-9.862-2.453-7.855-11.18-9.872-9.706S78.709,92.08,82.03,95.381s5.242,8.336,4.932,12.092-3.2-1.215-7.4-.021-5.917,7.234-12.346,7.219-9.8,1.067-12.362,2.39-8.8,8.212-7.426,9.664,6.878-1.955,9.9-4.821,4.136-1.319,9.889-2.4,11.554-7.274,12.346-4.805-1.817,5.159-2.468,9.659,3.041,4.47,0,7.249-7.363-.089-9.878,2.4-2.739,4.89-7.415,2.409-9.511-1.156-7.422-.009,9.146,3,12.366,4.851,6.229,3.3,4.942,7.256S61,152.9,59.8,155.771s5.33,3.119,0,7.256c-0.353.275-.751,0.567-1.178,0.872-3.12-2.587-10.323-2.141-11.341-4.181-1.442-2.888,2.126-11.843.146-16.05-2.028-4.307-4.2-3.389-4.954-7.267s2.5-5.47,0-9.684-7.842-9.135-7.436-12.123c1.2-8.784,14.762-8.619,14.865-12.065s-4.183-13.405-2.476-16.95,1.875-4.2,4.951-4.82,0.785-9.566,2.474-9.667,6.836-1.867,7.419-4.8-2.543-8.759,0-9.674,9.177,2.044,9.883.055,1.779-8.881,4.938-7.221,5.381,6.006,9.867,4.889c2.478-.617-0.517-2.646,2.465-4.815s6.38,0.372,7.391-2.369,2.462-9.26,4.924-12.035,6.265-2.9,9.84.067,7.511,5.266,9.83,4.888,4.4-1.255,7.365,2.458a5.486,5.486,0,0,0,1.707,1.444l0.746,0.981S135.678,54.716,133.683,54.609Zm-64,113.25c-0.2-1.764,1.661-10.065,2.47-12.086s4.658-10.29,7.405-9.664,7.492,3.453,7.4,7.25-4.343,2.825-4.932,7.246-0.28,5.76,0,9.663-1.521,10.168-2.467,7.25-2.624-7.321-4.936-7.245-10.271,7.568-9.88,9.679,4.149,2.293,9.88,2.405,11.995-.32,12.335-9.677,1.707-15.524,4.93-16.9,9.543,8.941,9.851,12.067,1.52,4.189,4.922,4.822,7.241,0.268,7.377-2.418-3.261,1.262-4.918-2.408-0.508-7.4,0-7.237-7.689-3.384-7.381-7.238,2.325-9.653,7.381-12.058,9.851-1.464,9.832,2.419,1.1,12.737,0,14.465-7.373,2.412-7.373,2.412-2.595-.652,0,2.412,4.8,0.12,7.373,0,11.014-2.247,9.822-7.231-3.129-10.688,0-9.638,10.6,8.624,12.261,12.047,3.519,12.326,0,14.447-4.435,2.277-9.808,2.417-9.661-2.764-12.275-4.81-3.287,4.205,2.457,7.23,7.571,0.933,12.271,2.395,6.621,2.221,4.9,4.811-2.632,7.474-7.357,4.829a21.718,21.718,0,0,1-7.363-7.218s-5.7-2.718-7.369,2.422-4.916,12.066-4.916,12.066a38.028,38.028,0,0,1,7.373-2.427c3.009-.479,9.873,5.212,12.275,4.794s7.5-3.937,9.808-4.838c1.866-.73,3.213-0.949,4.229.821-2.451,1.823-4.852,4.839-6.68,6.408-3.252,2.794-10.4,8.726-12.265,7.259s-4.434-9.522-7.367-9.622-6.99,8.223-9.832,7.259-8.981-12.725-12.3-12.036-12.142,7.94-14.788,4.861-3.529-7.94-4.935-9.654-13.458,1.816-17.293-2.389c-1.129-1.238-.61-5.919-0.1-10.734C65.047,172.441,69.775,168.632,69.688,167.859Zm59.089-60.269c4.018,2.839,2.31,18.687,2.453,21.689s-5.174.177-9.818-.016-8.678-.626-9.83-7.25,5.378-7.223,4.916-9.635-7.83-4.486-9.834-2.437,2.98,0.825,2.459,2.418-2.732,4.461-4.92,7.226,3,4.736,4.92,9.659-2.407,3.691-4.92,4.818-4.811-3.531-7.385-4.838-2.149,4.014-4.927,4.821-7-5.293-7.4-12.086,2.676-4.064,7.4-7.229,4.9-6.073,4.927-9.643-0.031-4.571,0-7.242,4.853,0.931,9.846.033,3.631-14.387,7.377-16.856,11.365,6.356,12.281,9.692-6.925,8.12-7.367,9.616-4.271,3.113-2.457,4.814S124.757,104.749,128.777,107.59Zm31.846,12.115c7.813,0.391,7.543,24.763,4.889,26.461s-4.135-1.544-7.335-2.411-5.051,6.112-9.79,4.806-14.551-4.906-14.7-7.234c-0.324-4.939,9.4-6.431,9.806-9.621s-4.942-2.708-4.9-7.232,9.52-11.22,7.351-14.429-7.877-2.868-9.8-2.435-5.86-3.163-7.359-7.249,5.879-8.964,12.261-9.592,5.773,2.265,7.349,4.841-3.033,6.493-2.449,9.621,9.454,5.973,9.792,9.652-10.052,6.962-7.343,9.61S152.8,119.313,160.623,119.705Zm9.776,4.829c0.969-.317,5.843.074,9.765,2.42s12.192-4.781,12.192-4.781a27.531,27.531,0,0,1-7.313,7.192,40.832,40.832,0,0,1-9.76,4.791c-2.251.805,1.6,6.5,2.441,9.615s-1.8,1.339-4.883-2.408-2.09-4.365,0-7.211S167.8,125.38,170.4,124.534Zm-26.91,55.322a13.6,13.6,0,0,0,4.9-9.633c0.53-6.51-2.635-9.122,0-12.034s7.76-6.236,12.236-4.811,8.092,2.669,7.333,7.215-3.761,11.868-9.779,12.029-9.509-1.543-9.79,2.415a9.418,9.418,0,0,0,1.475,4.863,13.644,13.644,0,0,1,5.868,4.753c2.7,4.275,4.655,5.972,7.338,4.8s12.07-13.517,12.215-14.441,7.193,0.916,7.321-.007-3.934-3.547-2.44-7.2,13.812-12.632,14.628-16.813-9.156-10.112-9.749-12.013-0.541-3.9,2.438-4.8,4.136-5.254,7.311-7.192,4.3-5.386,9.739-2.383c0.193,6.888-5.8,9.857-7.3,14.388s3.589,9.691,2.435,14.4-12.02,7.492-14.62,12.006c-1.576,2.735,4.5,9.316,2.438,12.007s-10.736-.412-12.2,2.417-2.655,14.32-7.327,16.838a12.2,12.2,0,0,1-6.246,1.124c-4.615-1.608-11.954-4.34-13.323-5.9C146.363,189.585,141.261,182.42,143.489,179.856Z"/>
  </g>
</svg>
