<svg id="ICONS" xmlns="http://www.w3.org/2000/svg" width="240" height="240" viewBox="0 0 240 240">
  <defs>
    <style>
      .cls-1 {
        fill: #fff;
        stroke: red;
        stroke-width: 1px;
        fill-rule: evenodd;
      }
    </style>
  </defs>
  <g id="str_agi" data-name="str agi">
    <path id="Фигура_50_копия" data-name="Фигура 50 копия" class="cls-1" d="M49.539,81.319c3.1-.685,2.131-5.846.534-9.562s0.762-8.682-.534-11.156S43.255,55.779,41,57.415,35.463,64.167,37.8,69.1s3.843,8.335,5.869,10.093S47.455,81.78,49.539,81.319Zm7.47-6.906c3,2.3,5.321,2.873,8,1.594s-0.044-5.906-.534-10.624a123.885,123.885,0,0,1-.534-13.28c0.044-3.2-2.752-3.78-5.869-3.719s-5.611,4.578-5.869,7.968-0.689,5.7,0,9.031C53.021,69.322,54.619,72.577,57.009,74.414Zm22.41-3.719c-0.1,3.618,4.781,6.115,8,6.906a26.443,26.443,0,0,0,9.071.531c1.393-.341,4.526-0.336,3.2,2.125a27.853,27.853,0,0,0-2.668,9.562C96.921,92.331,96.3,92.9,93.291,94.6s-3.457,4.2-4.8,3.187-1.31-2.462,0-3.719,2.933-3.037-.534-4.25-5.8-1.829-7.47,1.062-2.885,5.133-4.268,7.437-4.174,6.1-3.2,6.906,4.693-.849,6.936-2.125,6.014-1.969,5.336,0S67.68,144.534,67.68,144.534s8.047-28.8,6.936-29.748-6.689,4.538-8,3.718-0.941-12.63-1.067-17,1.5-11.017,2.134-13.28,0.812-3.492,0-3.718-6.4,8.555-7.47,9.031-2.135-1.607-1.6-5.312,1.156-6.16,0-6.374a5.5,5.5,0,0,0-4.8,1.594c-1.785,1.677-2.185,4.66-3.735,4.25s-2.058-2.4-3.735-2.125-4.065.8-4.8,3.718,1.226,8.978,3.2,13.281,3.544,6.89,4.269,9.562-0.216,5.391,2.668,6.374,8.016,1.768,9.071,3.719,1.562,2.785,1.067,5.312-1.1,4.79-2.668,3.718-5.526-.193-7.47-1.593-2.769-.219-3.2,1.593-0.3,4.967-3.2,5.313-5.233,1.14-5.336,2.124,7.946,6.9,10.138,7.969,7.018-.245,9.071.531,1.06,2.316,7.47,4.25,9.755,2.411,17.074-.532,16.335-6.587,20.276-9.03,6.444-3.615,3.2-5.312-3.547-1.256-5.869-4.781-3.705-4.772-6.936-3.188-13.15,6.4-14.406,5.312-1.761-4.354,0-5.843,10.656-4.252,13.873-7.437,8.452-12.144,11.205-14.874,5.567-3.695,6.936-8.5,1.407-14.2,0-19.655-1.438-8.379-4.8-9.562-6.856-2.688-11.2-2.656-5.445.531-9.6,1.062S79.539,66.489,79.419,70.695ZM66.613,52.634c0,6.3,2.127,16.012,4.269,18.061s4.89,1.815,5.869-.531,1.2-4.414,3.2-5.843,0.17-7.683,0-10.624,0.329-11-1.067-13.28-3.583-2.851-5.869-1.062S68.492,41.681,67.68,45.2A28.817,28.817,0,0,0,66.613,52.634Zm17.074-4.781C84.141,53.277,84.9,61.38,87.956,62.2a22.72,22.72,0,0,0,9.071,0c1.584-.386,2.221-3.13,1.6-5.843s-0.085-8.524-.533-11.687-0.282-6.645-3.2-7.968a7.59,7.59,0,0,0-8,1.062C84.731,39.46,83.2,42.085,83.687,47.853Z"/>
    <path id="Фигура_55_копия_4" data-name="Фигура 55 копия 4" class="cls-1" d="M153.753,151.247s5.624-9.784,6.905-12.063,6.116-5.553,11.507-6.319,17.929-2.844,21.289-3.447,11.248-2.493,13.233,1.149,1.819,5.315-1.15,10.34-9.853,17.649-13.809,24.7-6.589,10.837-6.329,12.638,6.151,5.069,9.781,6.893,7.244,3.147,6.9,4.6,0.129,2.209-3.452,2.3-7.152-.148-10.357-1.724a18.836,18.836,0,0,0-8.63-2.3c-3.263-.11-6.506.415-8.055-1.723s-0.283-3.02,1.726-5.745,5.506-9.538,5.754-12.638-0.295-9.421,1.15-12.063a33.523,33.523,0,0,1,4.6-6.894c1.657-1.728,2.007-3.735-.575-1.149s-6.225,6.817-8.631,8.043-9.195,1.47-12.083,0S153.753,151.247,153.753,151.247Zm1.881-.923s5.242,9.993,6.479,12.3,1.4,8.134-.847,13.085-7.234,16.625-8.53,19.777-3.94,10.81-8.083,10.525-5.467-1.325-8.115-6.526-9.612-17.781-13.443-24.9-5.613-11.372-7.274-12.121-7.588,2.455-11.079,4.531-6.551,4.408-7.593,3.344-1.935-1.08-.086-4.142,3.968-5.943,7.022-7.794a18.791,18.791,0,0,0,6.579-6.032c1.847-2.688,3.146-5.7,5.784-5.856s2.7,1.385,3.925,4.541,5.1,9.762,7.583,11.636,8.115,4.815,9.571,7.452a33.555,33.555,0,0,1,3.349,7.581c0.569,2.323,2.076,3.7,1.279.133s-2.412-8.9-2.154-11.589,3.7-8.532,6.493-10.173S155.634,150.324,155.634,150.324Zm-58.57,15.867c1.849-3.062,3.968-6.517,7.022-8.368s4.732-2.769,6.579-5.458M156,152.5s-11.3.077-13.916,0.119-7.885-2.48-11.263-6.744-11.49-14.033-13.7-16.627-7.821-8.447-5.67-11.994,3.684-4.245,9.527-4.214,20.234-.389,28.329-0.528,12.7,0.226,14.124-.9,1.288-7.86,1.039-11.909-0.925-7.833.5-8.27,1.847-1.223,3.727,1.821,3.474,6.244,3.724,9.8a18.755,18.755,0,0,0,2.358,8.6c1.547,2.87,3.635,5.4,2.565,7.816s-2.471,1.765-5.841,1.4-11.026.054-13.833,1.4-8,5-11.019,5.082a33.622,33.622,0,0,1-8.283-.5c-2.329-.559-4.242.15-0.7,1.075s9.033,1.937,11.305,3.395,5.9,7.191,6.085,10.422S156,152.5,156,152.5Zm12.694-59.25c1.88,3.044,3.985,6.507,4.235,10.064s0.3,5.468,1.847,8.339"/>
  </g>
</svg>
