<svg id="Equipments_icon" xmlns="http://www.w3.org/2000/svg" width="240" height="240" viewBox="0 0 240 240">
  <defs>
    <style>
      .cls-1 {
        fill: #fff;
        stroke: red;
        stroke-width: 1px;
        fill-rule: evenodd;
      }
    </style>
  </defs>
  <g id="_2h_sword" data-name="2h sword">
    <path id="Фигура_188" data-name="Фигура 188" class="cls-1" d="M207,53c-1.96,3.362-15,13.613-15,15,0,1.48-1.122,13.342-2,14-1.295.97-11.786,0.986-13,1-1.168.014-67.728,66.322-68,68s-0.054,10.1-1,11-7.574.8-9,1-2.9,1.019-4,1-3.218-3.3-4-4c-0.87-.777,10.036-0.378,12-2,1.905-1.572.582-7.934,2-10s68-69.763,69-70c1.317-.311,9.881-0.089,11-1s1.531-9.45,2-11c0.823-2.721,15.462-15.112,16-17s6-17,6-17-14.807,4.819-17,6-15.8,15.491-18,16c-1.909.441-9.835-.552-11,1-1.253,1.669-.472,10.195-1,12s-67.275,67.078-70,69c-2.435,1.718-7.49.409-9,2-1.87,1.971-2.091,11.942-3,11-0.872-.9-3.854-2.179-4-4s1.106-2,1-3-0.446-8.5,1-9,9.967,1.259,11,0,68.053-67.719,68-69-0.437-12.813,1-14c1.325-1.094,12.523-1.77,14-2,1.622-.253,10.568-11.094,14-13,3.394-1.885,29-10,29-10S208.96,49.638,207,53ZM183,75c-1.93,1.935-7.35.956-9,1-1.855.049-68.148,67.068-70,69s-1.456,10.2-3,11-10,2-10,2-1.558.294-1-2,4-9,4-9-7.233,5.386-9,5a3.9,3.9,0,0,1-3-3s0.656-7.184,3-9,4.684-.165,8-2,70.9-68.752,71-71c0.095-2.053-2.014-7.454,1-10,2.7-2.282,6.963-.9,9-1,2.064-.1,9.507-8.812,14-13,5.046-4.7,19-9,19-9s-4.531,13.573-9,18-13.046,12-13,14C185.045,67.95,185.108,72.886,183,75ZM77,154a11.616,11.616,0,0,0,3,1c3.9,0.473,9-2,9-2a16.767,16.767,0,0,0-3,6c-0.371,1.437.557,3.22,1,5l19,19s2.544-1.277,4,0,0,4,0,4,1.424,3.593,0,5c-1.356,1.34-4.859,1.064-5.024,1.009-0.132.05-3.02,1.14-3.976-.009-0.978-1.176,0-4,0-4L52,142a3.981,3.981,0,0,1-4-1c-1.574-1.787,0-4,0-4s-1-3.295,1-5c2.393-2.036,4,0,4,0s2.31-1.067,4,0,1,4,1,4ZM54,187c4.034,3.726,5.082,5.067,4,6s-3.53.247-7-3-5.424-5.22-4-7C47.858,181.928,49.966,183.274,54,187Zm-1,10c0.031,1.93-11.291,5.9-12,7s-0.149,2.974-1,5-8.693,5.909-10,6-3.4-1.39-4-3c-0.322-.858,2.3-9.423,4-11s6-1,6-1-0.872-.179.308-0.608S41.98,188.363,43,188C44.184,187.579,52.969,195.07,53,197Zm-1-19c0.858-1.072,2.966.274,7,4s5.082,5.067,4,6-3.53.247-7-3S50.576,179.78,52,178Zm5-5c0.858-1.072,2.966.274,7,4s5.082,5.067,4,6-3.53.247-7-3S55.576,174.78,57,173Zm6-5a6.759,6.759,0,0,1,3-1c1.518-.3,3-5,3-5l9,8s-4.334,2.336-5,4,0.452,2.3-1,3-1.766,1.126-6-3S61.69,169.031,63,168Z"/>
  </g>
</svg>
