<svg id="Equipments_icon" xmlns="http://www.w3.org/2000/svg" width="240" height="240" viewBox="0 0 240 240">
  <defs>
    <style>
      .cls-1 {
        fill: #fff;
        stroke: red;
        stroke-width: 1px;
        fill-rule: evenodd;
      }
    </style>
  </defs>
  <g id="axe">
    <path id="Фигура_191" data-name="Фигура 191" class="cls-1" d="M200.484,92.041c-23.189,30.638-56.1,20.982-56.1,20.982v-4s33.765,5.652,51.088-19.982a47.784,47.784,0,0,0,4.007-46.959l5.008-2S219.31,67.167,200.484,92.041Zm1-24.978c-0.987,10.976-9.128,23.225-24.041,32.971s-33.057,6.994-33.057,6.994l2-8.992s17.7,1.607,34.059-15.986c15.781-16.97,9.016-34.969,9.016-34.969l8.013-4S202.473,56.087,201.485,67.063Zm-39.067,22.98-4.007-5s10.274-7.4,14.024-11.99,10.017-14.987,10.017-14.987h5.009s2.271,9.911-7.012,18.983A69.607,69.607,0,0,1,162.418,90.043Zm-14.024-4c-2.133.374-3.719-4.928-3.006-5.995,0.874-1.307,24.573-29.444,26.045-30.973s8.135-.54,9.016,1-6.23,11.964-13.023,19.982S150.526,85.672,148.394,86.046Zm23.039-44.96c-1.365.279-5.907-3.864-6.01-5-0.109-1.2,2.026-3.578,4.007-4s4.243,0.655,5.009,4A3.88,3.88,0,0,1,171.433,41.086Zm-4.007,5.995c0.351,1.785-25.159,32.805-26.044,32.971-2.1.394-4.571-1.034-6.011-2a18.566,18.566,0,0,1-4.007-4c-0.461-1.15-.672-5.5,1-7.993s21.8-26.627,23.04-26.976S167.076,45.3,167.426,47.081ZM135.371,84.048c2.777,1.215,4.356,3.792,3,5s-4.329,1.563-9.015-2-5.275-8.022-3-8.992a4.744,4.744,0,0,1,5.008,2C132.644,82.145,132.594,82.833,135.371,84.048Zm-2,9.991c0.343,1.626-5.264,4.509-8.014,7.993s-8.146,11.591-13.023,16.985-9.358,12.66-11.019,13.988-6.248-.978-8.013-3-3.808-2.793-3.005-5c0.7-1.928,5.474-6.9,9.016-10.99s9.41-11.267,14.024-16.985,7.39-11.986,9.016-12.989,3.066,3.106,5.008,5S133.025,92.413,133.368,94.039ZM96.3,140c-2.276,2.538-4.967.488-8.014-2-1.933-1.578-5.352-4.4-3.005-6.994s2.75-1.258,4.007,0a25.487,25.487,0,0,0,6.01,4C97.473,136.051,98.579,137.461,96.3,140Zm-7.012,9.991c-0.325,2.012-2.663,1.319-7.012,5s-9.359,12.274-19.033,23.979-12.118,18.093-16.028,20.981S35.873,193.89,36.2,190.954c0.176-1.577,4.384-6.341,9.016-10.99s12.416-15.158,21.036-24.978S76.963,139.389,78.273,139s2.029,2.493,5.009,5S89.616,147.978,89.292,149.99Zm-46.08,53.953c1.222,0.75-.87,2.405-3.005,4.995s-5.6-.136-8.014-2a8.221,8.221,0,0,1-3.005-7.993c0.7-2.8,2.486-4.343,4.007-4s1.819,3.036,4.007,5A36,36,0,0,0,43.212,203.943Z"/>
  </g>
</svg>
