<svg id="Equipments_icon" xmlns="http://www.w3.org/2000/svg" width="240" height="240" viewBox="0 0 240 240">
  <defs>
    <style>
      .cls-1 {
        fill: #fff;
        stroke: red;
        stroke-width: 1px;
        fill-rule: evenodd;
      }
    </style>
  </defs>
  <g id="Gloves">
    <path id="Фигура_88" data-name="Фигура 88" class="cls-1" d="M88.078,70.226a29.205,29.205,0,0,0,12.983,11.067c5.195,1.975,16.181,4.506,16.978,3.018s0.571-7.984,4-12.073,8.793-6.683,6.991-9.055-6.685.371-8.989,0-7.981-2.809-11.984-6.037-4.428-5.988-4-9.055,5.67-5.438,12.983-5.031,15.177,2.55,17.977,6.037,6.746,5.507,4.993,9.055,0.23,4.056,2,4.025,8.484,0.454,8.988-2.012,3.821-9.741-7.989-18.11S125.121,32.982,112.047,33s-16.5,2.05-19.974,6.037-3.412,9.1-3.995,17.1S87.2,68.67,88.078,70.226Zm38.949,31.19c-0.184,4.828,7.254,8.742,14.981,14.085s17.444,8.3,20.972,7.043,9.152-11.152,8.989-16.1-1.459-6.26-6.991-8.049-10.955-4.3-13.982-8.049-6.7-9.073-1-13.079,14.84-.863,20.973,2.012,12.55,7.252,12.983,11.067,3.352,5.835,3,8.049-3.009,8.592-4.993,12.074-5.8,7.736-4.994,9.055,1.725,2.183,8.989-5.031,9.4-10.074,9.987-15.092-2.894-14.1-8.989-20.122-15.413-11.013-28.962-12.073-19.811,1.127-22.97,6.037-2.392,6.8-3,13.079S127.248,95.635,127.027,101.416Zm-37.95,69.422c0.675,4.76,7.209,4.456,9.987,4.024s6.8-6.361,7.989-11.067,2.4-9.624,4.994-9.055,3.385,1.477,2,4.024-2.165,6.925-2,12.074-0.665,9.937-4.994,17.1-7,13.934-6.991,18.111,2.492,9.008,6.991,6.036,5.764-7.633,9.987-14.085,10.012-17.328,9.987-19.117,0.268-3.348,2-2.012,4.472,3.167,2,5.031-5.117,10.51-7.989,13.079-2.878,7.758-1,9.055,9.753-3.164,13.982-8.049,4.665-9.723,5.992-14.085S144.7,163.732,146,154.74s1.84-13.22,4.993-18.11,5.73-6.539,4.994-8.049-8.257-2.114-14.981-6.037-9.752-8.617-12.983-8.049-6.624,3.534-12.983,9.055-12.136,14.512-15.979,22.135S88.415,166.168,89.077,170.838Zm72.905-40.245c-2.5,1.258-.819,9.926-4,16.1s-5.266,14.517-4.994,21.128,3.557,6.775,6.991,4.025,2.337-9.857,3-14.086,3.347-11.258,3-13.079-5.2-4.694-3-6.037,5.808-1.147,5.993-4.025A4.6,4.6,0,0,0,161.982,130.593ZM146,175.868c-2.025,1.7-.19,5.752,1,8.049s4.164,1.483,4.994,0,2.26-8.623,0-9.055S147.327,174.756,146,175.868ZM69.1,98.4c-5.042,8.043-15.711,22.367-16.978,32.2-0.805,6.249,2.2,16.207,4.993,21.128S64.824,164.732,68.1,164.8s3.606-2.325,3.995-3.018-1.7-4.9,1-3.019,3.556,5.29,6.991,5.031,3.672,0.459,3.995-2.012-3.92-8.757-5.992-10.062-5.057-1.163-5.992-2.012-1.084-2.308-3-4.024-3.639-8.446-3-14.086,4.279-12.092,5.992-15.092,1.41-6.216,3-9.055,3.556-7.889,5.992-5.03,1.1,4.1,0,6.037-2.016,4.211-2,13.079-1.553,18.7,1,20.122,6.6-.585,8.988-5.03-1.5-11.5,1-14.086,6.431-9.329,8.988-12.073,7.474-11.153,8.988-10.061,1.068,5.734-5.992,14.085-4.9,9.337-4,11.067,6.906,0.46,7.99-3.018,4.709-3.937,4.993-7.043,4.186-3.2,4.994-7.042,3.418-5.361,3-8.049-0.251-11.675-1-12.074-11.38.81-18.975-3.018-11.1-9.835-13.982-9.055-3.374,4.668-6.991,10.061S71.751,94.173,69.1,98.4Z"/>
  </g>
</svg>
