<svg id="Equipments_icon" xmlns="http://www.w3.org/2000/svg" width="240" height="240" viewBox="0 0 240 240">
  <defs>
    <style>
      .cls-1 {
        fill: #fff;
        stroke: red;
        stroke-width: 1px;
        fill-rule: evenodd;
      }
    </style>
  </defs>
  <path id="Эллипс_3_копия_7" data-name="Эллипс 3 копия 7" class="cls-1" d="M190,42c-3.329-2.436-12-10-12-10s22.435-1.341,24,0,2.5,22.007,2,22S193.329,44.436,190,42Zm15,19-19,7L168,52s5.378-18.285,6-18,10.846,9.794,14,12S205,61,205,61ZM184,72l-1,2s-2.906-2.22-5,0-1,6-1,6l-2,2s-5.883-4.106-11-8a44.381,44.381,0,0,1-9-10l9-9s5.854,6.011,9,9S184,72,184,72ZM165,60a5,5,0,1,0,5,5A5,5,0,0,0,165,60Zm0,8a3,3,0,1,1,3-3A3,3,0,0,1,165,68Zm6,17c0.224,0.057-.305.767-1.247,1.831a4.988,4.988,0,0,0-6.8,7.087C161.445,95.456,160.02,96.91,159,98c-0.706.755-2.059,2.255-3.8,4.189a4.985,4.985,0,0,0-6.682,7.391c-2.678,2.94-5.518,6.023-8.126,8.767a4.984,4.984,0,0,0-7.067,7.021A7.136,7.136,0,0,1,131,127c-2.638.346-7.3-2.829-11-5s-7.881-8.532-7-10c0.532-.887,11.148-11.8,19-20s19.377-22.02,20-22,6.827,5.39,9,7S170.179,84.792,171,85Zm-50,23a5,5,0,1,0,5,5A5,5,0,0,0,121,108Zm16-17a5,5,0,1,0,5,5A5,5,0,0,0,137,91Zm15-16a5,5,0,1,0,5,5A5,5,0,0,0,152,75Zm0,8a3,3,0,1,1,3-3A3,3,0,0,1,152,83ZM137,99a3,3,0,1,1,3-3A3,3,0,0,1,137,99Zm-16,17a3,3,0,1,1,3-3A3,3,0,0,1,121,116Zm7,16a0.17,0.17,0,0,1,0,.022,4.976,4.976,0,0,0-6.85,7.132A7.269,7.269,0,0,1,120,140c-0.979.425-7.552-3.224-11-6s-7.082-8.821-7-10,6.516-8.351,7-7c0.247,0.691,4.915,5.047,8,8S127.578,131.311,128,132Zm-19-11a5,5,0,1,0,5,5A5,5,0,0,0,109,121Zm0,8a3,3,0,1,1,3-3A3,3,0,0,1,109,129Zm-3,9a35.088,35.088,0,0,0,12,8c0.746,0.269-4.174,8.3-5,9s-10.515-1.225-18-8-7-11.023-7-14c0-.659,8.287-5.862,9-6S100.639,132.544,106,138ZM94,151c2.328,2.1,6.771,2.907,7,4s0.035,1.94-3,2-10.68-6.39-11-9-0.569-4,1-4C89.846,144,91.672,148.9,94,151Zm-5,5c1.425,1.112,3.8,1.659,4,3s-3.975,3.734-7,7-38.3,41.689-40,42-6.907-4.64-6-6c0.58-.87,35.814-38.22,39-42s4.675-7.707,6-8S87.575,154.888,89,156ZM44,212c-0.216,2.861-6.455,3.215-9,1s-0.586-8,2-8c1.16,0,1.56,1.674,3,3S44.216,209.139,44,212Zm81-79a3,3,0,1,1-3,3A3,3,0,0,1,125,133Zm12-14a3,3,0,1,1-3,3A3,3,0,0,1,137,119Zm15-16a3,3,0,1,1-3,3A3,3,0,0,1,152,103Zm15-15a3,3,0,1,1-3,3A3,3,0,0,1,167,88Zm14-13a3,3,0,1,1-3,3A3,3,0,0,1,181,75Z"/>
</svg>
