<svg id="ICONS" xmlns="http://www.w3.org/2000/svg" width="240" height="240" viewBox="0 0 240 240">
  <defs>
    <style>
      .cls-1 {
        fill: #fff;
        stroke: red;
        stroke-width: 1px;
        fill-rule: evenodd;
      }
    </style>
  </defs>
  <g id="InIntellectt">
    <path id="Фигура_54" data-name="Фигура 54" class="cls-1" d="M199,112c-4.412,3.259-4.074,3.828-9,4s-5.161-.386-9,4-12.427,8.428-18,11-13.266,4.886-13,6c0.484,2.032,5.9,18.64,7,25,0.8,4.612,1.557,16.524-2,20a9.56,9.56,0,0,1-13,0c-4.682-4.211-4.875-14.731-3-23s5.383-17.884,5-20c-0.275-1.52-6.209,2.261-12,3-8.515,1.086-16.281.521-16,2,0.5,2.617,5.067,21.459,6,30,0.938,8.591,1.83,20.263,1,28-0.857,7.984-2.83,15.832-12,16-9.211.169-11.519-9.945-12-15-0.736-7.73-.042-20.8,2-32s6.169-23.808,7-27c0.462-1.772-7.362-1.065-16-3-6.764-1.515-14.923-5.964-15-5-0.238,2.987,2.581,9.861,4,16,2.267,9.807,3.433,21.544,0,27-2.235,3.552-7.769,6.723-13,3-5.811-4.136-5.816-16.275-4-25s7.486-22.238,6-24-8.862-3.485-14-6-10.446-6.371-13-7c-1.915-.471-4.188-0.12-8-3s-5.918-6.807-6-8c-0.253-3.67,6.865-7.988,13-14,3.172-3.109,14.062-14.185,20-19S79.668,64.54,91,62c16.58-3.716,28.909-3.432,45,3,10.989,4.393,26.987,14.383,38,21s18.069,9.712,26,14,14.4,7.285,14,10S201.511,110.145,199,112ZM110.5,87A16.5,16.5,0,1,0,127,103.5,16.5,16.5,0,0,0,110.5,87ZM84,82c-7.636,3.12-13.469,8.193-18,12s-6.984,8.5-8.3,9.86c-1.639,1.7,1.915,1.281,3.3,5.14,1.341,3.741,1.6,8.344,11.32,11.172,4.356,1.268,9.9,2.9,15.364,4.344A29.851,29.851,0,0,1,91.455,79.21C88.8,80.089,86.309,81.057,84,82Zm82,19c-4.4-1.941-20.391-11.616-25-15a49.43,49.43,0,0,0-8.991-4.773,29.847,29.847,0,0,1-1.26,45.63A38.5,38.5,0,0,0,136,126a93.412,93.412,0,0,0,25-12c4.773-3.3,9.592-5.859,10-8S170.4,102.941,166,101Zm-8.857,9.992c-2.647,2.352-5.877,4.72-8.143,3.008-2.295-1.734-2.2-5.558-1-7,0.843-1.011,5.839-2.062,9-1S159.663,108.753,157.143,110.992ZM116,113c-3.517,2.256-8.033,2.575-11,1-3.2-1.7-6.551-6.583-4-8,1.517-.843,3.727-0.131,6,2,1.616,1.515,5.088,1.161,7,0,2.441-1.482,4.041-3.109,6-2C122.257,107.277,119.517,110.744,116,113Zm70-40c-5.707.884-13.609-5.589-23-11-10.831-6.241-20.577-12.222-38-16a85.7,85.7,0,0,0-44,2c-11.326,3.5-20.195,9.2-27,14-6.449,4.553-14.484,14.244-21,8-3.977-3.811-.511-7.14,7-14S62.878,38.407,78,34s40.5-4.292,56,0c16.432,4.552,37.869,17.023,46,22,7.594,4.649,19.367,6.941,20,9S192.905,71.931,186,73Z"/>
  </g>
</svg>
