<svg id="Equipments_icon" xmlns="http://www.w3.org/2000/svg" width="240" height="240" viewBox="0 0 240 240">
  <defs>
    <style>
      .cls-1 {
        fill: #fff;
        stroke: red;
        stroke-width: 1px;
        fill-rule: evenodd;
      }
    </style>
  </defs>
  <g id="Belt">
    <path id="Фигура_168" data-name="Фигура 168" class="cls-1" d="M212.906,137.188c-0.333,14.178-2.868,12.263-10.024,16.985s-9.614,5-10.023,4-0.816-21.539,0-23.98c0.3-.911,6.812-3.43,12.028-7.993s4.467-6.734,5.113-8.2S213.24,123.01,212.906,137.188Zm-32.076-2c-25.37,8.183-53.47,10.515-81.192,6.994S48.283,131.421,41.5,122.2s-3.76-14.569-1-16.986,11.565-6.23,13.031-5.994,1.8,5.721,3.007,7.993-7,.494-7.017,7.993,14.089,13.946,26.062,16.985,43.785,8.639,68.161,4c24.252-4.619,38.372-11.384,44.105-13.988,4.8-2.18,9.135-4.883,10.023-7.993,0.648-2.266-.979-3.564,1-6,1.6-1.96,8.531,2.055,8.019,6S206.2,127.007,180.83,135.19ZM178.825,118.2c-2.7.969,0.113-6.287,0-9.991s-2.631-5.87,1-6.994,10.239-4.042,10.024-5.995-3.749-1.087-7.017,0-14.111,2.409-26.062,2-11.984-.046-11.026,2,6.969,1.6,11.026,2,4.176,3.4,6.015,7.993,5.783,11.367,5.011,11.99-3.344,1.808-10.023,2-19.848,1.482-21.05,0,1.812-1.862,6.014-4,4.488-6.374,4.01-8.992-5.315-12.123-7.017-13.988-7.9-1.63-12.028-3-6.241,1.368-9.022,2-1.945,2.864-6.014,2-6.908-3.085-11.026-5.995-0.124-5.857,2-6.994c4.268-2.28,13.242,1.09,21.049,3s20.549,3.108,34.081,4,23.971-3.472,28.066-3,7.339,2.716,10.024,7.993-2.685,11.743-5.012,13.988S181.53,117.235,178.825,118.2Zm-72.17-38.966c-5.967.03-5.772-1.246-6.014-3s3.52-2.607,3.007-5c-0.458-2.127.284-2.674,1-3s1.873-.589,9.021,3,7.183,8.723,6.015,9.991S112.621,79.208,106.655,79.238ZM82.6,99.221c-4.564-1.6-7.681-4.365-5.012-7.993,3.354-4.559,10.338-.433,13.031,1s6.3,1.151,13.031,4,5.924,7.488,3.007,8.992-9.126-3.935-11.026-5S87.162,100.824,82.6,99.221ZM106.655,124.2c5.632,2.22,3.189,6.573-5.012,6.994s-7.694-4.37-7.017-6.994C95.761,119.8,101.022,121.979,106.655,124.2Zm-16.038-7.993c-1.424-1.182-1.359-2.269,0-6,0.61-1.671,1.576-4.069,3.007-5s10.765,4.271,13.031,5,5.052-3.309,6.014-2,8.642-.247,10.024-3-0.315-7.127,1-7.993,4.324,0.714,9.021,2,5.365,4.338,7.017,7.993,0.787,6.222-2,7.993-13.215,10.082-15.035,10.99-11.9-4.707-16.038-5.994S92.04,117.387,90.617,116.206Zm0-40.965c-2.8-.167-12.3,3.662-16.038,7.993s-3.12,12.689-1,18.984S81.369,113.7,82.6,115.207s-0.314,3.358-1,5,2.67,7.176,0,6.994-14.362-10.964-18.043-14.988c-4.726-5.166-5.966-12.183-6.014-18.983S60.3,80.684,68.565,72.244c7.531-7.69,25.458-7.624,27.064-6.994s-0.844,3.169-1,5S93.412,75.409,90.617,75.241ZM66.56,140.185c23.146,7.372,47.458,9.661,65.154,7.993,35.705-3.363,47.083-9.848,48.114-8.992s0.779,23.4,0,24.979-16.318,6.645-35.083,8.992-51.632-.354-72.171-6a103.613,103.613,0,0,1-39.7-20.813c-5.916-4.977-5.059-17.274-4.4-23.149,0.4-3.609,4.168-11.9,5.012-11.99,1.888-.207-0.782,4.981,2,10.991C39.1,130,48.964,134.581,66.56,140.185Z"/>
  </g>
</svg>
