<svg id="Equipments_icon" xmlns="http://www.w3.org/2000/svg" width="240" height="240" viewBox="0 0 240 240">
  <defs>
    <style>
      .cls-1 {
        fill: #fff;
        stroke: red;
        stroke-width: 1px;
        fill-rule: evenodd;
      }
    </style>
  </defs>
  <g id="_2h_axe" data-name="2h axe">
    <path id="Фигура_181" data-name="Фигура 181" class="cls-1" d="M209.916,87.388c-1.951,11.272-13.643,28.936-21.433,36.706s-32.688,22.269-48.99,23.452-23.3-1.784-22.454-3.059c0.463-.693,8.225-6.789,10.207-8.157s3.686-.243,15.309-2.039c13.822-2.137,25.025-9.754,35.721-18.354,11.572-9.3,17.535-18.446,21.433-26.51s1.884-10.769,1.021-11.216-2.953,1.6-9.186,5.1-13.2,1.472-14.288,1.02-4.807-1.049-4.083,0,8.528,3.225,13.268,3.059,9.37-4.917,10.207-3.059-6.157,12.584-12.248,20.393-20.393,16.685-29.6,21.412-14.735,5.787-14.288,5.1,2.444-.7,6.123-4.079,2.682-4.359,3.062-7.137,2.28-3.346,9.186-10.2,4.081-14.64,3.062-16.314-5.342-1.33-6.124-2.039,5.639-7.609,5.1-8.157-5.478,4.592-7.144,6.118-8.164,1.131-10.206,0-0.04-2.681,1.02-4.079,1.022-3.918,1.021-5.1,4.28-5.521,6.123-6.118,4.749-4.024,6.124-4.078,10.19,7.8,13.268,8.157,8.719-.362,18.371-4.079S206.8,62.272,208.9,63.937,211.866,76.117,209.916,87.388Zm-63.279-27.53c0.959,3.952,6.123,6.2,6.124,8.157S139.212,85.13,137.452,85.349s-4.09-2.526-4.083-6.118,8.768-13.327,8.165-14.275-6.017,5.716-7.144,7.137-1.644,2.27-3.062,2.039-0.584-2.23-3.062-3.059a10.717,10.717,0,0,0-10.206,2.039c-5.374,4.348-4.251,11.709-5.1,13.255s-3.34-1.472-8.165,2.039c-2.584,1.881-4.665,9.964-5.1,9.177-0.591-1.062,1.5-13.223,4.082-18.353s6.5-11.174,14.289-19.373,14.994-10.566,16.33-10.2,0.973,4.091,3.062,7.137,4.223,4.029,5.1,3.059-2.727-4.567-4.083-9.177-0.953-11.233-1.02-13.255-0.7,2.791-2.041,6.118-4.513,2.826-11.227,6.118-9.605,6.86-16.33,15.294S97.586,86.207,96.627,94.525s0.092,15.522-1.021,17.334-6.467,7.857-7.144,6.118C87.385,115.208,87.174,93.9,90.5,81.27S101.03,56.676,118.06,41.505s33.931-17.283,35.722-16.314-0.868,5.491-5.1,15.294S145.678,55.907,146.637,59.858ZM90.5,142.448c1.04,1.853.347,2.768,2.041,3.058a7.133,7.133,0,0,1,4.082,3.059c0.456,0.924-8.089,9.822-9.186,10.2s-3.761.318-4.082-1.02-0.6-2.937-2.041-3.059-3.308-1.707-3.062-3.059c0.231-1.271,7.275-9.412,8.165-10.2A2.782,2.782,0,0,1,90.5,142.448ZM82.339,161.82c0.508,1.354-6.754,7.658-12.247,14.275S59.857,190.044,57.844,190.37s-7.625-4.976-7.144-7.138c0.231-1.039,6.5-7.63,11.227-13.255S74.544,156.423,75.194,155.7,81.83,160.467,82.339,161.82ZM57.844,199.546c1.225,2.57-2.266,4.363-4.082,6.118s-4.545-1.64-6.124-3.059-0.618-3.087-1.021-4.078-2.952.3-4.083,0-6.224-6.559-6.124-8.157c0.116-1.849,4.595-5.756,6.124-6.118s3.791,5.561,6.124,8.157S56.618,196.976,57.844,199.546Zm-19.392-1.019c2.091,1.8,2.57,2.2,2.041,4.078s-3.4,3.925-3.062,5.1,4.047-2.785,6.124-3.059,4.2,0.309,5.1,2.04,2.263,2.919-4.082,5.1-8.747,3.708-10.206,3.059-5.433-2.263-4.083-8.157,3.042-12.236,4.083-12.236C35,194.448,36.361,196.726,38.452,198.527ZM125.2,90.447c0-1.846,4.077-6.557,5.1-7.137s2.823,4.117,6.124,7.137,9.785,4.055,10.206,5.1-4.578,6.032-7.144,7.137-5.593-1.566-9.186-5.1S125.2,91.582,125.2,90.447Zm3.062,20.392c-2.593-1.367-8.688-5.972-8.165-7.137s1.379-4.078,3.062-4.078c1.375,0,2.438,2.406,5.1,4.078s6.279,3.018,5.1,4.078S130.86,112.207,128.266,110.839ZM90.5,137.349c-0.116-1.848.347-1.587,2.041-3.058s3.048-.052,4.082,0,0.122-2.016,1.021-4.079,19.34-23.239,20.412-23.451,8.989,6.451,9.186,7.137-6.789,6.246-11.227,11.216-10.365,13.285-11.227,14.275-3.186-2.146-3.062,1.019-2.09,4.345-3.062,5.1S90.541,137.947,90.5,137.349Z"/>
  </g>
</svg>
