<svg id="Equipments_icon" xmlns="http://www.w3.org/2000/svg" width="240" height="240" viewBox="0 0 240 240">
  <defs>
    <style>
      .cls-1 {
        fill: #fff;
        stroke: red;
        stroke-width: 1px;
        fill-rule: evenodd;
      }
    </style>
  </defs>
  <g id="Necklace">
    <path id="Фигура_159" data-name="Фигура 159" class="cls-1" d="M212.267,72c-2.669,4.037-10.29,10.148-12.232,11.252s-5.029,1.774-4.078-1.023,3.084-8.272-3.058-4.091-12.232,5.394-12.233,8.183,2.353,5.938-2.038,8.183-19.042,7.865-30.582,11.252c-10.114,2.969-12.727,3.648-16.608,5.349a4.71,4.71,0,0,1-1.272.573l-0.469.215a5.073,5.073,0,0,1-.907.327,5.077,5.077,0,0,0-2.151,2.742c-1.577,3.781-8.236,9.8-12.232,11.252s-7.485,1.109-7.136-2.046c0.169-1.528,2.842-5.857,5.1-9.206s4.682-6.328,5.1-8.183-1.092-3.578,1.019-6.138-0.588-3.892,7.136-5.114c2.413-.382,4.067.837,5.153,2.736,0.914,0.472,2.339.733,5.041,0.333,5.6-.828,22.41-6.4,31.6-11.252S190.429,75.261,194.938,72s6.983-6.485,11.213-8.183C209.512,62.466,214.937,67.961,212.267,72ZM100.135,121.1C97.264,119.81,93,120.182,93,117.005c0-2.717,2.9-8.544,6.116-13.3s3.891-3.565,10.194-1.023,1.48,6.626-1.02,10.229S103.007,122.382,100.135,121.1Zm-6.116-17.389c-4.589,6.791-3.871,10.356-6.116,13.3s-2.492,1.3-5.1-1.023a8.4,8.4,0,0,1-3.058-7.161c0.169-6.96,9.724-21.242,12.233-24.549s4.936-2.466,9.175,0,1.852,8.739,1.019,10.229S98.608,96.916,94.019,103.707ZM80.767,93.478C79.676,91.908,69,74.676,64.457,63.815s-7.706-23.4-6.116-26.6c0.677-1.358,3.891-4.987,6.116-4.092s5.727,7.763,5.1,10.229-2.585-.089-4.078,1.023-1.722.756-1.019,7.16,5.05,14.647,7.136,15.343,1.975-6.129,4.078-6.137,3.65,6.63,9.174,16.366,2.6,7.92,0,12.275S81.858,95.049,80.767,93.478Zm8.155,29.664c7.382-.6,15.292,5.569,17.33,8.183s2.916,31.992,2.038,41.938-4.266,11.85-7.135,13.3-4.371-.492-6.117-3.069-0.541-5.262,1.019-8.183,0.345-.52,1.019-12.275-0.484-24.954-2.039-27.618-4.543-3.072-9.174-2.045S74.49,139.609,69.554,143.6,57.342,154.331,56.3,158.943s-1.056,18.714,0,22.5,3.9,7.109,6.116,8.183,9.214,0.455,10.194,3.069-5.553,7.52-9.174,8.183-4.918,2.587-8.155-1.023a32.031,32.031,0,0,1-6.116-11.251c-1.046-4.136-2.685-5.214-2.039-21.481s5.642-21.016,15.291-28.641S81.54,123.74,88.922,123.142Zm-25.485,60.35c-4.763-2.868-3.618-22.66-3.058-25.572s2.869-4.354,12.233-12.275,14.835-11.007,18.349-9.206,2.393,12.921,3.058,24.55-2.38,17.05-9.174,19.434S68.447,186.508,63.438,183.492Z"/>
  </g>
</svg>
