<svg id="Equipments_icon" xmlns="http://www.w3.org/2000/svg" width="240" height="240" viewBox="0 0 240 240">
  <defs>
    <style>
      .cls-1 {
        fill: #fff;
        stroke: red;
        stroke-width: 1px;
        fill-rule: evenodd;
      }
    </style>
  </defs>
  <g id="scepter">
    <path id="Фигура_224" data-name="Фигура 224" class="cls-1" d="M187.221,44.74c-7,6.915-3.445,7.481-5.249,7.33s-6.3,1.047-6.3,1.047,1.5-3.638,2.1-5.236,1.6-1.281,4.2-3.141,17.611-16.649,18.9-15.707S194.223,37.825,187.221,44.74Zm1.05-13.613h6.3L181.972,41.6Zm-12.6,15.707a6.031,6.031,0,0,0-2.1-1.047c-1.13-.265,3.149-11.519,3.149-11.519l8.4-2.094-5.249,10.471Zm-7.349-2.094a8.728,8.728,0,0,0-3.15,2.094V39.5l8.4-4.189-2.1,10.471S169.683,44.458,168.325,44.74Zm-7.349,12.566c-1.668,1.338-4.5-3.716-4.2-5.236,0.544-2.714,4.779-3.883,6.3-3.141S162.645,55.967,160.976,57.306Zm-2.1-12.566,4.2-3.142v5.236h-4.2V44.74Zm-3.15,5.236c-0.726,1.261,0,4.189,0,4.189s-1.407-.086-3.149,0a6.833,6.833,0,0,0-3.15,1.047l-1.049-1.047,8.4-8.377,1.05,2.094A6.847,6.847,0,0,0,155.727,49.976Zm0,13.613c-0.931,1.47-9.966.489-9.448-2.094,0.363-1.809,3.487-6.251,7.349-6.283S156.659,62.119,155.727,63.589Zm-8.4,2.094a19.354,19.354,0,0,0,5.249,0s0.546,2.168,0,2.094-4.2,3.141-4.2,3.141l-9.449-7.33,6.3-7.33,1.05,1.047s-2.09,3.965-2.1,5.236S145.289,65.247,147.329,65.683Zm-8,23.12c2.485-2.263,4.847-4.271,4.847-4.271s4.121,2.481,4.2,3.141-2.352,3.152-2.1,5.236S149.428,95,149.428,95s-7.017,7.981-8.4,8.377l-1.05,1.048a24.832,24.832,0,0,1-5.249-3.142,11.8,11.8,0,0,1-3.149-4.189l2.261-2.631A15.186,15.186,0,0,1,135.962,92l1.919-2.233Zm-9.85,21.907a42.4,42.4,0,0,1-7.348-6.282c-2.537-3.05-2.1-5.236-2.1-5.236h10.5l3.149,4.188Zm7.349,4.189a28.013,28.013,0,0,1-4.2-2.094l3.149-7.33,4.2,1.047s3.013,9.054,2.1,9.424S138.357,115.386,136.831,114.9Zm-11.548-3.141c1.7,1.833,6.3,4.188,6.3,4.188a7.689,7.689,0,0,0-4.2,2.094c-1.514,1.725-1.622,2.764-1.05,6.283s4.063,6.272,9.448,13.613S144.3,151.4,143.13,152.6s-14.1-13.569-16.8-16.754-7.662-4.567-9.448-4.189-4.349,3.566-5.249,5.236-0.055,2.682-1.05,2.094a38.572,38.572,0,0,0-6.3-3.141,5.1,5.1,0,0,1-3.149-2.094c-0.764-.928.218-2.745,1.049-3.142s6.668-5.722,7.349-11.518-5.18-12.971-7.349-16.755-6.283-7.474-5.249-8.377c1.091-.952,9.872,7.4,13.648,11.519s6.858,7.305,8.4,6.283,2.1-4.189,2.1-4.189S123.579,109.924,125.283,111.758Zm-6.3,4.188a13.9,13.9,0,0,1-5.249,0,22.228,22.228,0,0,1,0,5.236,11.474,11.474,0,0,1-3.149,6.283c-2,1.906-6.177,4.349-5.249,5.236s1.908,3.029,2.1,2.094,4.09-4.695,6.3-6.283a11.027,11.027,0,0,1,6.3-2.094c1.364,0.1.327-2.873,1.05-6.283a14.206,14.206,0,0,1,2.1-5.236S122.433,115.44,118.984,115.946Zm-17.846,21.99a7.341,7.341,0,0,1,3.149,0c1.7,0.406,4.2,3.142,4.2,3.142s-9.72,8.693-11.548,10.471-3.49-.011-5.249-1.047-3.149-2.635-2.1-4.188,10.5-11.519,10.5-11.519S100.811,137.939,101.138,137.936Zm-7.349,17.8c0.111,0.72-3.32,1.748-5.249,3.141S51.579,201.329,49.7,202.86s0.386,3.32-1.05,5.235-3.515,5.432-6.3,6.283-7.486,1.07-7.349-1.047a24.935,24.935,0,0,1,3.149-10.471c2.623-5.094,4.139-5.378,6.3-5.236s9.673-10.513,18.9-20.943,19.889-22,21-23.037,0.476-3.722,2.1-4.189c0.84-.242,1.784,1.694,3.149,3.141S93.736,155.39,93.789,155.738Zm64.038-69.112c1.836-1.468,3.149-1.047,3.149-1.047s5.131,4.571,6.3,7.33a25.7,25.7,0,0,0,3.15,5.236A24.892,24.892,0,0,0,159.926,95a66.149,66.149,0,0,0-8.4,0S155.991,88.094,157.827,86.626Zm4.2-4.189c-0.013-1.175.529-.68,1.05-2.094a1.8,1.8,0,0,1,2.1-1.047s3.578,6.79,5.25,7.33a44.24,44.24,0,0,0,5.249,1.047l2.1,5.236s-1.892,3.377-4.2,4.189-1.308-1.017-2.1-2.094-6.3-8.377-6.3-8.377S162.039,83.613,162.026,82.437Zm17.847,0a7.581,7.581,0,0,0,0-5.236s1.429-.027,3.149,0,3.15-2.094,3.15-2.094l3.149,2.094-9.448,13.613-2.1-3.141S178.828,85.264,179.873,82.437Zm8.4-12.566c-0.509-1.335-3.149-4.189-3.149-4.189l10.5,1.047-4.2,8.377-3.15-2.094A5.923,5.923,0,0,0,188.271,69.872Zm-9.448-12.566c1.486-1.014,3.775.471,5.249,2.094s-2.2,2.176-4.2,3.141-3.028-.758-3.15-2.094C176.542,58.457,177.337,58.319,178.823,57.306Zm1.05,9.424a4.837,4.837,0,0,1,5.249,4.189c0.529,3.191-3.431,4.589-6.3,4.189s-4.2-3.389-4.2-5.236C174.624,67.881,177.7,66.823,179.873,66.73Zm-2.1,16.754c-0.29,1.282-4.971,3.422-8.4,0s-2.617-7.861-1.05-9.424c0.181-.181,3.57-0.18,6.3,2.094S178.063,82.2,177.773,83.485Zm-22.046-7.33c2.445,1.673-1.82,6.8-3.149,8.377s-3.554,1.5-5.249,0c-1.125-1-.3-3.693,2.1-6.283S153.282,74.481,155.727,76.155Zm1.05-2.094c2.589,2.607,4.125,2.958,4.2,4.189s-7.1,10.928-8.4,12.566-3.968,3-4.2,2.094a2.924,2.924,0,0,1,0-2.094c0.285-.938,4.466-4.935,7.348-8.377s1.87-6.553,0-8.377-4.328.176-6.3,2.094-4.434,5.912-6.3,7.33-1.457.962-2.1,0c-0.413-.618.142-1.624,2.1-4.189s7.339-7.533,9.448-8.377S154.188,71.454,156.777,74.06ZM138.93,66.73s8.324,5.2,7.349,7.33-6.3,7.33-6.3,7.33a34.653,34.653,0,0,0,0-7.33C139.519,70.835,138.93,66.73,138.93,66.73Zm28.345-12.566c-1.537-.355-1.471-7.609,1.05-7.33,1.632,0.181,4.3,1.172,4.2,3.141S168.812,54.52,167.275,54.164Zm6.3,1.047c2.041,0.873-1.316,10.707-4.2,13.613s-7.46,6.146-11.548,3.142c-3.447-2.533-.987-7.857,3.149-11.519S171.533,54.339,173.574,55.212Zm21-14.66c5.013-4.783,5.249-5.236,5.249-5.236V41.6l-13.647,7.33S189.557,45.334,194.57,40.551ZM187.221,59.4c0.422-1.322-2.208-3.614-4.2-4.189s1.579-2.716,4.2-4.189,13.648-6.283,13.648-6.283,0.226,7.618,0,9.424-3.15,10.472-3.15,10.472l-12.6-1.047A32.311,32.311,0,0,0,187.221,59.4Z"/>
  </g>
</svg>
