<svg id="Equipments_icon" xmlns="http://www.w3.org/2000/svg" width="240" height="240" viewBox="0 0 240 240">
  <defs>
    <style>
      .cls-1 {
        fill: #fff;
        stroke: red;
        stroke-width: 1px;
        fill-rule: evenodd;
      }
    </style>
  </defs>
  <g id="bowgun">
    <path id="Фигура_282" data-name="Фигура 282" class="cls-1" d="M169,164c-0.854,12.093,9.834,16.478,11,17s9-1,9-1l6,6a40.789,40.789,0,0,1-15,3,15.7,15.7,0,0,1-13-6,9.74,9.74,0,0,1-3,3c-1.977,1.236-6.564,2.154-8,0-1.224-1.837.385-4.5,2-6a23.119,23.119,0,0,1,5-3,21.921,21.921,0,0,1-4-8c-1.467-5.152-1.39-15.052,5-27s13.405-27.44,15-33-0.982-13.828-6-17-8.452,1.744-11,3-8.472.581-10-1,9-11,9-11a24.831,24.831,0,0,1,13-1c7.615,1.317,11.977,6.438,15,14s2.487,17.948-2,29S169.854,151.907,169,164ZM179,60c-3.595.16-5.48-1.792-9-5s-6.436-5.867-7-9-0.231-2.816,2-7c2.324-4.357,6.064-6.946,12-9s10.813-4.551,12-4,1.881,15.51,0,21S182.6,59.841,179,60Zm-4-24c-3.5,2.126-8.068,5.84-5,11,1.98,3.33,5.993,6.789,8,6a8.575,8.575,0,0,0,5-6c0.493-2.878,2-14,2-14S178.5,33.874,175,36Zm6,35-7,8-8-2,9-11Zm-64,58-4-7s32.977-42.746,37-45,5.365-3.256,7-6,1.834-4.4-1-6-7.37.989-8,3-2.227,3.295-4,6-37,42-37,42l-4-5,56-63,13,15Zm23-70c-2.436-2.307-12.673-2.3-23,6S97.423,78.936,94,80s-9.612-2.751-11-3-1.832,1.936-3,4-4.994,1.844-6,0a4.187,4.187,0,0,1,1-5,40.273,40.273,0,0,1,4-3,30.819,30.819,0,0,1-3-9c-0.72-4.815,2-11,2-11l7,6a10.744,10.744,0,0,1-1,3c-1,2.386-2.986,4.668,2,9s11.27-3.872,24-13,20.412-12.933,29-10a18.268,18.268,0,0,1,10,9l-8,9S142.436,61.307,140,59ZM60,159c-0.14,3.689,2.8,8.478,7,13s8.027,4.458,14,2,5.739-5.53,8-6,5.249,0.182,5,2,1.529,4.775-6,8-9.745,5.744-15,4a22.712,22.712,0,0,1-13-10c-3.736-5.715-4.65-8.056-5-13-0.258-3.643,2.575-6.271,6-8a17.733,17.733,0,0,1,7-2c0.022,0.133-1,3-1,3S60.14,155.311,60,159Zm-1,31c0.966-2.758-1.81-5.844-3-9s0-10,0-10,2.877,6.916,6,9,8,5,8,5a47.324,47.324,0,0,0-3,5c-0.816,1.8-5.762,12.877-7,16s-5.846,7.165-9,8-8.483-1.678-11-5-0.691-7.462,2-9c1.181-.675,10.3-2.351,11-3S58.034,192.758,59,190Zm37-28c1.673-.967,4.293-0.376,5,1s-3,6-3,6-0.791-.874-2-2a14.474,14.474,0,0,0-3-2A10.833,10.833,0,0,1,96,162Zm11-33,4,4L75,173s-5.457-2.98-8-6a26.707,26.707,0,0,1-4-7l35-43,4,6s-24.3,23.366-21,29S107,129,107,129Zm45-32c2.533,1.28,9,0,9,0l-35,40-6-6,29-35S149.467,95.72,152,97Zm6,81a646.617,646.617,0,0,1-46-48C90.044,104.325,81,85,81,85l-1-2,2-2s9.435,20.524,31,46,48,50,48,50ZM95,159c-1.477.88-16,13-16,13s16.134-18.116,17-18,17-19,17-19l7,7-17,20a3.8,3.8,0,0,0-2-3A6.471,6.471,0,0,0,95,159Z"/>
  </g>
</svg>
