<svg id="ICONS" xmlns="http://www.w3.org/2000/svg" width="240" height="240" viewBox="0 0 240 240">
  <defs>
    <style>
      .cls-1 {
        fill: #fff;
        fill-rule: evenodd;
      }
    </style>
  </defs>
  <g id="Alchemy">
    <path id="Фигура_9" data-name="Фигура 9" class="cls-1" d="M110.326,142.863l-16.644-14.2L100.6,113.78,120.545,130.8A7.9,7.9,0,0,1,110.326,142.863Zm3.683-9.669a2.639,2.639,0,1,0,2.629,2.639A2.634,2.634,0,0,0,114.009,133.194Zm26.4-18.6,6.557,15.042L129.6,144.444a7.772,7.772,0,0,1-6.61,1.685,11.816,11.816,0,0,0,.745-17.317Zm70.645,2.77a115.138,115.138,0,0,0-12.784-15.644l-28.193,29.155L208.659,215S190.2,188.164,185,183.333a19.394,19.394,0,0,0-10.517-5.277l-16.245-34.94-25.979,26.865,8.045,8.075-18.4,18.472h-2.629l-18.045-18.111-0.36-.361,7.947-7.976c-6.773-6.87-16.173-16.4-26.118-26.453L66.684,178.056a19.394,19.394,0,0,0-10.517,5.277C50.968,188.164,32.5,215,32.5,215l38.259-83.421C60,120.72,49.535,110.2,41.887,102.586a114.5,114.5,0,0,0-12.011,14.775s-3.99-.448-2.629-2.639A78.728,78.728,0,0,1,38.976,99.7c-5.424-5.372-8.888-8.721-9.1-8.723-1.1-.013,2.629-2.639,2.629-2.639l8.9,8.932A137.776,137.776,0,0,1,58.8,83.056c22.561-15.7,36.808-15.833,36.808-15.833v2.639A117.031,117.031,0,0,0,61.426,85.694a122.975,122.975,0,0,0-17.16,14.443l28.02,28.124,29.024-63.284a21.037,21.037,0,0,0,13.457,9.666L84.252,140.271,111.38,167.5l7.888-7.917H121.9l7.83,7.86c6.979-7.157,16.719-17.226,26.9-27.779l-32.8-70.554a15.547,15.547,0,0,1-4.558.751,15.833,15.833,0,1,1,15.775-15.833c0,0.128-.035.246-0.038,0.373l33.47,72.978c10.314-10.7,20.185-20.969,27.212-28.28a122.128,122.128,0,0,0-16.071-13.4,116.4,116.4,0,0,0-34.057-15.833V67.222s14.2,0.133,36.677,15.833a138.971,138.971,0,0,1,16.226,13.156c4.678-4.868,7.568-7.878,7.568-7.878l2.629,2.639-7.562,7.82a80.186,80.186,0,0,1,12.575,15.93C215.028,116.913,211.053,117.361,211.053,117.361ZM74.572,135.833L58.8,170.139h2.629L77.2,138.472ZM121.9,164.861h-2.629l-5.259,5.278,5.259,5.278s0.931,1.7,2.629,0c1.318-1.323,3.1-3.133,5.227-5.309Zm7.77,7.8-7.77,8.034h-2.629s-2.991-3.038-7.843-7.961l-5.3,5.323,13.146,13.194H121.9l13.146-13.194Zm-10.4-126.549a7.873,7.873,0,0,0-7.82,7.24l2.763-.693a5.235,5.235,0,1,1,10.154,2.555l2.692-2.162A7.872,7.872,0,0,0,119.268,46.111Zm47.325,89.722-2.629,2.639,15.775,31.667h2.629ZM114.036,36.269C114.179,30,116.455,25,119.268,25s5.088,5,5.231,11.269A19.544,19.544,0,0,0,114.036,36.269Z"/>
  </g>
</svg>
