<svg id="ICONS" xmlns="http://www.w3.org/2000/svg" width="240" height="240" viewBox="0 0 240 240">
  <defs>
    <style>
      .cls-1 {
        fill: #fff;
        fill-rule: evenodd;
      }
    </style>
  </defs>
  <g id="SYNTHESIS">
    <path id="Прямоугольник_8_копия" data-name="Прямоугольник 8 копия" class="cls-1" d="M192.144,97.153L214.991,120l-52.243,52.242H148.676L200.918,120l-8.774-8.774V97.153ZM177.218,62.782H164.809l-9.951-9.951h32.311v73.882l-9.951,9.951V62.782Zm-4.976,28.542L120,39.082l-8.774,8.774H97.153L120,25.009l52.242,52.242V91.324ZM132.314,58.432l4.35,4.35H62.782V75.191l-9.951,9.951V52.831h73.882ZM85.172,67.758h6.152L39.082,120l8.774,8.774v14.073L25.009,120,77.252,67.758h7.92Zm-22.39,35.578v73.882H75.191l9.951,9.951H52.831V113.287l0.323-.323Zm4.976,58.955V148.676L120,200.918l8.774-8.774h14.073L120,214.991,67.758,162.748v-0.457Zm14.926-43.535a36.072,36.072,0,1,1,36.072,36.072A36.072,36.072,0,0,1,82.684,118.756Zm104.485,36.1v32.311H113.287l-9.119-9.119-0.832-.832h73.882V164.809Z"/>
  </g>
</svg>
