<svg id="ICONS" xmlns="http://www.w3.org/2000/svg" width="240" height="240" viewBox="0 0 240 240">
  <defs>
    <style>
      .cls-1 {
        fill: #fff;
        stroke: red;
        stroke-width: 1px;
        fill-rule: evenodd;
      }
    </style>
  </defs>
  <g id="agi_int" data-name="agi int">
    <path id="Фигура_54_копия_5" data-name="Фигура 54 копия 5" class="cls-1" d="M129.162,89.164c-2.6,1.932-2.4,2.269-5.3,2.371s-3.041-.229-5.3,2.371-7.322,5-10.606,6.521-7.816,2.9-7.659,3.557c0.285,1.2,3.476,11.05,4.124,14.82,0.471,2.734.918,9.795-1.178,11.856a5.608,5.608,0,0,1-7.66,0c-2.758-2.5-2.872-8.733-1.768-13.635s3.171-10.6,2.946-11.855c-0.162-.9-3.658,1.34-7.07,1.778-5.017.644-9.593,0.309-9.427,1.186,0.293,1.551,2.986,12.72,3.535,17.783,0.553,5.093,1.078,12.012.589,16.6-0.5,4.733-1.667,9.385-7.07,9.485-5.427.1-6.787-5.9-7.07-8.892a79.679,79.679,0,0,1,1.178-18.969c1.2-6.641,3.635-14.114,4.124-16,0.272-1.051-4.337-.632-9.427-1.779-3.985-.9-8.793-3.535-8.838-2.964-0.14,1.771,1.521,5.846,2.357,9.485,1.336,5.813,2.023,12.771,0,16-1.317,2.106-4.577,3.986-7.659,1.779-3.424-2.452-3.427-9.648-2.357-14.82s4.411-13.183,3.535-14.227-5.221-2.066-8.249-3.557-6.154-3.777-7.659-4.15c-1.128-.279-2.467-0.071-4.714-1.778S29.049,88.093,29,87.386c-0.149-2.175,4.045-4.735,7.66-8.3,1.869-1.843,8.285-8.409,11.784-11.263a46.356,46.356,0,0,1,17.087-8.3c9.769-2.2,17.033-2.034,26.513,1.778,6.475,2.6,15.9,8.526,22.389,12.449s10.647,5.757,15.319,8.3,8.485,4.318,8.249,5.928S130.642,88.065,129.162,89.164ZM77.019,74.345a9.781,9.781,0,1,0,9.722,9.781A9.751,9.751,0,0,0,77.019,74.345ZM61.405,71.381c-4.5,1.85-7.936,4.857-10.605,7.114s-4.115,5.039-4.889,5.845c-0.966,1.006,1.128.759,1.943,3.047,0.79,2.218.946,4.946,6.669,6.623,2.566,0.752,5.831,1.717,9.052,2.575A17.764,17.764,0,0,1,65.8,69.727C64.236,70.248,62.766,70.821,61.405,71.381Zm48.314,11.263a147.528,147.528,0,0,1-14.73-8.892,29.071,29.071,0,0,0-5.3-2.829,17.763,17.763,0,0,1-.742,27.049,22.6,22.6,0,0,0,3.094-.508,54.878,54.878,0,0,0,14.73-7.114c2.812-1.955,5.652-3.473,5.892-4.742S112.312,83.794,109.719,82.644ZM104.5,88.567c-1.56,1.395-3.463,2.8-4.8,1.783a3.268,3.268,0,0,1-.589-4.15c0.5-.6,3.441-1.223,5.3-0.593S105.985,87.239,104.5,88.567ZM80.26,89.757a6.723,6.723,0,0,1-6.481.593c-1.887-1.008-3.86-3.9-2.357-4.742,0.894-.5,2.2-0.078,3.535,1.186,0.952,0.9,3,.688,4.124,0,1.438-.879,2.381-1.843,3.535-1.186C83.946,86.365,82.332,88.42,80.26,89.757ZM121.5,66.045c-3.363.524-8.019-3.313-13.552-6.521-6.381-3.7-12.123-7.245-22.389-9.485a50.2,50.2,0,0,0-25.924,1.185,55.911,55.911,0,0,0-15.908,8.3c-3.8,2.7-8.534,8.444-12.373,4.742-2.343-2.259-.3-4.233,4.124-8.3S48.961,45.539,57.87,42.927s23.865-2.545,32.995,0c9.681,2.7,22.312,10.091,27.1,13.041,4.474,2.756,11.41,4.115,11.783,5.335S125.571,65.412,121.5,66.045Z"/>
    <path id="Фигура_55_копия_5" data-name="Фигура 55 копия 5" class="cls-1" d="M156.753,151.247s5.624-9.784,6.905-12.063,6.116-5.553,11.507-6.319,17.929-2.844,21.289-3.447,11.248-2.493,13.233,1.149,1.819,5.315-1.15,10.34-9.853,17.649-13.809,24.7-6.589,10.837-6.329,12.638,6.151,5.069,9.781,6.893,7.244,3.147,6.9,4.6,0.129,2.209-3.452,2.3-7.152-.148-10.357-1.724a18.836,18.836,0,0,0-8.63-2.3c-3.263-.11-6.506.415-8.055-1.723s-0.283-3.02,1.726-5.745,5.506-9.538,5.754-12.638-0.295-9.421,1.15-12.063a33.523,33.523,0,0,1,4.6-6.894c1.657-1.728,2.007-3.735-.575-1.149s-6.225,6.817-8.631,8.043-9.195,1.47-12.083,0S156.753,151.247,156.753,151.247Zm1.881-.923s5.242,9.993,6.479,12.3,1.4,8.134-.847,13.085-7.234,16.625-8.53,19.777-3.94,10.81-8.083,10.525-5.467-1.325-8.115-6.526-9.612-17.781-13.443-24.9-5.613-11.372-7.274-12.121-7.588,2.455-11.079,4.531-6.551,4.408-7.593,3.344-1.934-1.08-.085-4.142,3.968-5.943,7.022-7.794a18.791,18.791,0,0,0,6.579-6.032c1.847-2.688,3.146-5.7,5.784-5.856s2.7,1.385,3.925,4.541,5.1,9.762,7.583,11.636,8.115,4.815,9.571,7.452a33.555,33.555,0,0,1,3.349,7.581c0.569,2.323,2.076,3.7,1.279.133s-2.412-8.9-2.154-11.589,3.7-8.532,6.493-10.173S158.634,150.324,158.634,150.324Zm-58.57,15.867c1.849-3.062,3.968-6.517,7.022-8.368s4.732-2.769,6.579-5.458M159,152.5s-11.3.077-13.916,0.119-7.885-2.48-11.263-6.744-11.49-14.033-13.7-16.627-7.821-8.447-5.67-11.994,3.684-4.245,9.527-4.214,20.234-.389,28.329-0.528,12.7,0.226,14.124-.9,1.288-7.86,1.039-11.909-0.925-7.833.5-8.27,1.847-1.223,3.727,1.821,3.474,6.244,3.724,9.8a18.755,18.755,0,0,0,2.358,8.6c1.547,2.87,3.635,5.4,2.565,7.816s-2.471,1.765-5.841,1.4-11.026.054-13.833,1.4-8,5-11.019,5.082a33.622,33.622,0,0,1-8.283-.5c-2.329-.559-4.242.15-0.7,1.075s9.033,1.937,11.305,3.395,5.9,7.191,6.085,10.422S159,152.5,159,152.5Zm12.694-59.25c1.88,3.044,3.985,6.507,4.235,10.064s0.3,5.468,1.847,8.339"/>
  </g>
</svg>
