<svg id="Equipments_icon" xmlns="http://www.w3.org/2000/svg" width="240" height="240" viewBox="0 0 240 240">
  <defs>
    <style>
      .cls-1 {
        fill: #fff;
        stroke: red;
        stroke-width: 1px;
        fill-rule: evenodd;
      }
    </style>
  </defs>
  <g id="dagger">
    <path id="Фигура_172" data-name="Фигура 172" class="cls-1" d="M135.7,105.816c20.423-19.638,32.318-32.081,40.406-41.877S192.86,42.824,194.475,43s4.827,4.066,0,20.939-8.718,21.885-24.489,36.95-34.945,28.4-45.3,38.182-11.4,9.7-12.244,8.622-4.933-4.727-7.347-7.39-4.24-3.329-4.9-4.927-0.589-.5,8.571-7.39S127.838,113.377,135.7,105.816Zm-64.895,27.1c-0.573,2.4,4.35,3.544,11.02,7.39a58.826,58.826,0,0,1,18.367,17.243c4.76,7.042,9.541,12.694,17.142,12.317s11.486-5.282,9.8-7.39-5.978.1-9.8-2.463c-2.115-1.421-6.734-6.845-12.245-13.549s-15.2-14.509-20.815-16.012S71.815,128.69,70.807,132.913ZM42.645,195.728c3.559,3.8,8.191,3.8,12.244,2.464s5.644-4.487,3.673-7.39-7.377-10.554-9.8-9.854-7.237,3.34-7.347,6.159S39.959,192.857,42.645,195.728ZM70.807,160.01c7.2-5.84,13.928-11.159,15.918-11.085s10.021,8.7,9.8,11.085c-0.082.861-7.167,8.527-17.142,16.011s-12.24,8.535-15.918,12.317c-0.758.779-9.855-11.164-8.571-12.317C59.16,172.189,66.989,163.1,70.807,160.01Z"/>
  </g>
</svg>
