<svg id="Equipments_icon" xmlns="http://www.w3.org/2000/svg" width="240" height="240" viewBox="0 0 240 240">
  <defs>
    <style>
      .cls-1 {
        fill: #fff;
        stroke: red;
        stroke-width: 1px;
        fill-rule: evenodd;
      }
    </style>
  </defs>
  <path id="Фигура_236" data-name="Фигура 236" class="cls-1" d="M139,92c-1.075,1.613,1.47,4.682,3,6s5.587,3.513,7,3,0.509-6.4,2-8,32.015-36.344,35-38,4.932-2.521,5-4-1.943-1.521-3-3-2.693-3.271-4-2-1.068,3.479-2,5-33.443,35.354-36,37S140,90.5,139,92Zm49-50c-0.932,2.021-.318.854,1,3s3.057,4.854,4,4,8-15,8-15S188.932,39.979,188,42ZM44,193c-1.807,2.375-2.318,6.625-1,8s6.682,5.75,10,4,3.432-4.625,4-6,4.932-7,6-8a15.191,15.191,0,0,1,4-2s-5.068-2-6-3-3-6-3-6a34.692,34.692,0,0,1-3,5c-1.682,2.25-4.068,5-6,6S45.807,190.625,44,193Zm17-14c0.318,1.75,3.807,6.25,5,7s1.307-2.625,4-5,13-14,13-14,2.182-2.5,0-4-3.443-1.875-5-1-9.193,10.75-12,13S60.682,177.25,61,179Zm23-55c-1.463.823-1.568,3.5-2,8s-1,18-1,18,1.057-1,3-3,2-3,2-3-1.443.125-2-2,0.182-11.375,1-13,1.932-2,4-3,2.182-1,4-1,5-3,5-3S86,122.875,84,124Zm8,3a43.9,43.9,0,0,1-2,8,46.333,46.333,0,0,0-2,6l4-1,4-14Zm2-7a10.384,10.384,0,0,1,5-2c2.818-.25,9-1,9-1a7.212,7.212,0,0,1-3,2,40.015,40.015,0,0,0-5,2Zm3,39c-0.168.546-1,3-1,3s6.682-2.125,10-2,8.307-.875,10-2,2.557-4.625,3-7,1-12,1-12-3.068,10.5-4,12-1.193,5.25-3,5-8.068-.75-10,0S97.5,157.375,97,159Zm24-11-1,4s4.182-.375,5-1,1.307-5.75,1-9a32.717,32.717,0,0,1,0-6s-1.068,7.875-2,9A41.088,41.088,0,0,1,121,148Zm-18,5,11-2-1,3-11,1Zm-26,2a22.708,22.708,0,0,0,1,4,3.8,3.8,0,0,1,4,1c2.068,1.875,3.307,1.5,4,4s2,2,2,2,2.307-2.5,4-3,2.932-3,3-4a5.3,5.3,0,0,1,2-3,10.934,10.934,0,0,1,2-1s1.474-2.875,2-3a2.271,2.271,0,0,0,1-1l1-5a13.5,13.5,0,0,0-3-3c-1.224-.625-5-2-5-2s-2.859.625-3,1-1.859.208-3,2-1.776,3.875-3,5a32.426,32.426,0,0,1-5,3S76.932,153.75,77,155Zm21-16a7.912,7.912,0,0,1,3,1c0.859,0.708,4,4,4,4l32-35s5.307-3.792,6-4,2.141,0.208,2-1-3.609-3.125-5-5-3-4-3-4a2.826,2.826,0,0,0-2,1c-0.474.875-2,5-2,5l-29,32Z"/>
</svg>
