<svg id="ICONS" xmlns="http://www.w3.org/2000/svg" width="240" height="240" viewBox="0 0 240 240">
  <defs>
    <style>
      .cls-1 {
        fill: #fff;
        fill-rule: evenodd;
      }
    </style>
  </defs>
  <g id="GUILD">
    <path id="Фигура_33" data-name="Фигура 33" class="cls-1" d="M52,37.391H193s-0.377,10.006-6.221,10.326-64.279,0-64.279,0-58.712.182-64.279,0C51.982,47.514,52,37.391,52,37.391ZM111,33l17.794,0.261S126.683,25,120,25C111.658,25,111,33,111,33Zm65.412,117.978a119.529,119.529,0,0,1-12.441,33.044,42.46,42.46,0,0,0,8.294-10.326c4.466-7.615,8.294-24.783,8.294-24.783s1.864,27.483,0,30.978c-2.629,4.93-18.456,15.8-20.735,14.457-4.594-2.713-.285-6.983-2.074-8.261a14.015,14.015,0,0,0-10.368-2.065,49.406,49.406,0,0,0,12.442-14.457,59.306,59.306,0,0,0,6.22-22.717,82.985,82.985,0,0,1-18.662,30.978c-7.708,7.93-16.736,8.179-24.882,8.261-6.905.069-20.735-8.261-20.735-8.261a29.992,29.992,0,0,0,16.588,12.391c8.47,2.443,11.963.912,16.588,0,2.468-.486,8.294-4.13,8.294-4.13l-2.073,16.522S124.569,215.28,120.426,215s-22.138-11.474-22.808-12.391,0-12.392,0-12.392a40.007,40.007,0,0,0,10.367,6.2c5.254,1.88,12.441,2.065,12.441,2.065s-13.913-.453-33.176-24.782c-17.348-21.911-18.662-43.37-18.662-43.37-1.216,6.087-.007,20.083,4.147,30.978,6.427,16.857,12.441,20.653,12.441,20.653a20.428,20.428,0,0,0-2.074,6.195,32.074,32.074,0,0,0,0,6.2s-11.756-3.513-16.588-10.326c-9.721-13.707-8.294-30.979-8.294-30.979s2.555,5.261,4.147,8.261a47.46,47.46,0,0,0,4.147,6.2s-5.621-16.749-6.221-22.717-2.126-22.3-2.074-35.109-0.5-25.719,0-33.044c0.83-12.276,1.718-21.214,6.221-22.717,5.623-1.877,15.607.436,18.662,2.065C95,62.324,96.76,68.1,103.838,72.5c9.119,5.67,22.809,4.13,22.809,4.13s-7.043-2.469-12.441-4.13-10.432-6.588-10.432-6.588c-0.105-.64,8.255.36,13.43,0.47,6.171,0.131,15.692-.075,15.664-0.078l-6.221,4.13s8.4,1.448,14.515-4.13,7.419-7.925,12.441-10.326a15.117,15.117,0,0,1,4.195-.964c-1.227,1.8-2.477,3-4.195,5.094-2.256,2.745-4.147,8.261-4.147,8.261s1.05-1.291,6.22-6.2c5.4-5.122,5.711-5.276,10.368-6.2,0.207-.041,2.5-0.074,2.718-0.108a15.242,15.242,0,0,1,5.333,2.8c6.53,5.492,7.609,10.631,6.464,34.485S180.519,131.822,176.412,150.978Zm-7.221-59.891c-0.32-.97-3.677,3.477-8.294,6.2-3.916,2.306-9.9,2.529-10.368,2.065-0.882-.875-0.227-1.077,4.147-4.13s10.824-8.772,12.442-12.391,2.021-16.4,0-16.522a88.158,88.158,0,0,0-4.147,8.261c-0.648,1.621-6.419,10.759-12.442,16.522-10.975,10.5-15.6,10.216-14.514,12.391,0.7,1.4,2.105-.158,4.147,2.065,1.714,1.866,1.162,6.983-2.237,11.667s-10.108,5.075-12.278.725c-1.409-2.825-.828-5.305,2.074-8.261,1.815-1.85,3.032-.948,4.147-2.065,0.4-.4,0-2.066,0-2.066H121.5c-0.009.034,2.144,2.255,1.882,4.843a3.509,3.509,0,0,1-3.371,3.405v-0.113a3.64,3.64,0,0,1-3.96-3.431c-0.263-2.6,1.893-4.829,1.884-4.862H107.554s-0.395,1.675,0,2.073c1.116,1.122,2.335.217,4.153,2.073,2.9,2.969,3.486,5.457,2.076,8.294-2.173,4.367-8.886,3.981-12.293-.728s-3.956-9.839-2.24-11.712c2.044-2.232,3.453-.666,4.152-2.073,1.084-2.184-3.543-1.9-14.533-12.44-6.031-5.785-11.808-14.959-12.457-16.586a88.786,88.786,0,0,0-4.152-8.293c-2.024.121-1.619,12.953,0,16.587s8.076,9.374,12.457,12.44,5.036,3.268,4.152,4.147c-0.468.465-6.46,0.241-10.381-2.073-4.623-2.729-7.984-7.194-8.3-6.22-0.6,1.815.188,8.775,2.076,10.366,4.519,3.809,5.06,3.231,9.176,4.412,3.523,1.011,7.6,1.236,7.433,3.881-0.087,1.408-5.051,2.405-8.481,2.336-4.329-.088-9.005-2.009-9.011-1a7.742,7.742,0,0,0,6.008,7.027c3.8,0.909,11.229-1.137,11.485-.065,0.639,2.674-1.3,3.209-4.152,4.146-4.117,1.353-7.619.749-8.3,2.074-0.9,1.74,2.749,4.732,6.979,4.888a15.145,15.145,0,0,0,9.011-3.011s2.655,1.8,1,3.011c-1.734,1.273-4.318,2.143-5.006,3.012s2.686,2.332,4.005,2.008c3.174-.78,6.007-4.016,6.007-4.016a1.427,1.427,0,0,1,1,2.008c-0.634,1.593-4,4.016-4,4.016s3.394,1.308,5.006,0c2.53-2.053,2.331-3.841,2.989-3.623,1.741,0.577,0,4.147,0,4.147a2.342,2.342,0,0,0,3.5-1.747,2.108,2.108,0,0,1,2.52-1.789c-0.005.015-1.16,4.1,2,6.564,3.708,2.887,5.884,3.993,6.008,7.491,0.08,2.266-1.393,4.632-5.006,7.027-3.383,2.244-8.068,3.269-10.012,3.012-3.995-.528-5.7-3.227-6.008-2.008s3.549,6.1,8.884,6.12c6.951,0.02,9.727-2.743,10.14-2.1,0.794,1.23-2.135,2.58-1.649,6.46s1.638,2.047,2.076,6.22,0.091,6.1,2.076,6.22a5.7,5.7,0,0,0,2.076,0V177.88c0.307,0,.771-0.009,1.489-0.054,1.983-.124,1.636-2.039,2.074-6.2s1.588-2.33,2.073-6.195S123.206,160.225,124,159c0.412-.637,3.185,2.115,10.127,2.1,5.328-.015,9.175-4.886,8.873-6.1s-2.011,1.474-6,2c-1.942.256-6.621-.766-10-3-3.608-2.386-5.08-4.743-5-7,0.124-3.484,2.3-4.585,6-7.461,3.159-2.454,2-6.525,2-6.539a2.107,2.107,0,0,1,2.518,1.782,2.339,2.339,0,0,0,3.5,1.74s-1.739-3.556,0-4.131c0.657-.217.458,1.564,2.985,3.609,1.61,1.3,5,0,5,0s-3.366-2.413-4-4a1.421,1.421,0,0,1,1-2s2.83,3.223,6,4c1.318,0.323,4.688-1.134,4-2s-3.269-1.732-5-3c-1.651-1.209,1-3,1-3a15.15,15.15,0,0,0,9,3c4.225-.155,7.871-3.136,6.971-4.87-0.685-1.319-4.182-.718-8.3-2.065-2.849-.933-4.785-1.467-4.147-4.13,0.256-1.067,7.679.971,11.471,0.065a7.717,7.717,0,0,0,6-7c-0.006-1-4.677.912-9,1-3.426.069-8.383-.924-8.471-2.326-0.163-2.635,3.905-2.859,7.424-3.866,4.111-1.177,4.651-.6,9.165-4.4C169,99.828,169.787,92.895,169.191,91.087Z"/>
  </g>
</svg>
