<svg id="ICONS" xmlns="http://www.w3.org/2000/svg" width="240" height="240" viewBox="0 0 240 240">
  <defs>
    <style>
      .cls-1 {
        fill: #fff;
        fill-rule: evenodd;
      }
    </style>
  </defs>
  <g id="drop">
    <path id="Фигура_20" data-name="Фигура 20" class="cls-1" d="M164.008,196.4c-15.45,8.785-28.705,11.017-36.6,7.883-4.306-1.711-23.934-20.89-25.836-20.295s-0.222,1.516,4.994,7.447,6.346,8.846-2.5,14.9-21.6.988-37.46-7.447-6.317-36.836-2.5-54.615a369.6,369.6,0,0,1,9.989-37.237c1.775-5.288,13.327-8.55,14.984-4.965s-2.032,7.524-2.164,12.263,1.2,10.193,2.825,10.307c3.075,0.215,1.55-15.761,6.831-25.052,3.6-6.327,4.286-6.091,12-7.743s4.571-3.211,15.47-4.669S146.9,95.9,169,116.964s28.861,36.642,29.968,42.2S179.459,187.618,164.008,196.4ZM176.5,136.824c-1.784,1.279.658,9.606,0.82,14.989,0.149,4.964-3.016,14.68-13.182,21.551-9.806,6.627-28.328,11.439-27.595,13.109s20.74-1.67,32.465-7.447,18.081-12.777,19.61-18.78C190.366,153.369,178.279,135.545,176.5,136.824ZM91.586,84.692c5.908,0.361,9.841-2.793,9.99,0s0.3,1.221-7.492,4.965S84.094,92,84.094,87.174C84.094,83.071,85.679,84.331,91.586,84.692Zm37.46-27.307c-7.492,4.608-17.534,15.354-19.979,17.377s-8.74,2.768-7.491-2.483,7.474-14.153,4.994-14.895S98.325,71.865,94.084,72.28,89.673,57.5,86.592,57.385s-5.008,7.383-4.995,9.93,5.347,8.006,2.5,12.412c-3.452,5.337-16.26-3.77-19.978-7.447S52.922,59.457,54.127,54.9s9.45-2.684,14.984,0,6.917,0.848,7.492-2.482,5.258-21.211,17.481-22.342,8.246,9.346,14.983,9.93,8.207-8.94,19.979-4.965S136.538,52.776,129.046,57.385Z"/>
  </g>
</svg>
