<svg id="ICONS" xmlns="http://www.w3.org/2000/svg" width="240" height="240" viewBox="0 0 240 240">
  <defs>
    <style>
      .cls-1 {
        fill: #fff;
        stroke: red;
        stroke-width: 1px;
        fill-rule: evenodd;
      }
    </style>
  </defs>
  <g id="link">
    <path id="Фигура_42" data-name="Фигура 42" class="cls-1" d="M200.575,120.587c-7.072,21.288-23.741,45.128-44.123,63.151s-35.037,27.5-47.518,24.81c-13.179-2.84-40.871-37.058-49.781-50.747s-19.534-32.25-24.89-54.129S34.089,60.449,39.92,48.415s19.189-13.43,42.992-15.788a288.581,288.581,0,0,1,78.065,2.255c30.5,4.885,38.506,13.753,44.124,28.193S207.647,99.3,200.575,120.587ZM88.569,96.906c0.083,2.53,23.168,19.847,22.627,21.426s-23.758,23.682-23.758,23.682l2.263,12.4s25.244-32.6,26.022-33.831,4.3-.638,5.657,0,27.153,34.959,27.153,34.959V139.758S126.168,118.351,125.9,117.2s21.912-18.3,22.628-20.3-28.778-30.234-30.547-30.448S88.486,94.376,88.569,96.906Zm93.9-41.725c-6.956-5.233-19.051-7.4-33.941-7.894s-19.147.071-21.5-1.128-5.853-3.837-7.92-2.255,0.887,7.787,9.051,10.149c9.425,2.727,19.716,2.847,32.81,5.639,12.169,2.594,20.4,6.5,20.365,20.3s-0.34,32.447,1.131,32.7,4.576-1.3,5.657-5.639,4.282-17.761,4.526-27.065S189.43,60.414,182.473,55.181Zm-61.094,58.64a4.643,4.643,0,0,1-4.526,0c-1.6-.887-15.036-15.5-14.708-16.915,0.453-1.956,13.36-15.413,14.708-15.788s3.18-.828,4.526,0,14.351,15.72,14.708,16.916S123.028,112.85,121.379,113.821ZM46.708,109.31c3.385,11.656,12.538,35.736,22.628,48.491a194.891,194.891,0,0,0,24.89,25.937c5.569,4.954,14.79,16.459,20.365,16.916s11.975-7.067,14.708-9.022,5.353-6.255,2.262-6.766-8.154,6.269-12.445,5.639-11.782-6.457-23.759-20.3-22.53-24.989-29.416-48.491S56,93.678,58.022,82.246s15.2-23.687,18.1-25.937,2.263-3.383,2.263-3.383-5.251-.019-13.576,6.766S56.179,66.636,50.1,66.458s-8.181,2.869-7.92,6.766S42.009,84.605,43.314,92.4,44.533,101.82,46.708,109.31Z"/>
  </g>
</svg>
