<svg id="ICONS" xmlns="http://www.w3.org/2000/svg" width="240" height="240" viewBox="0 0 240 240">
  <defs>
    <style>
      .cls-1 {
        fill: #fff;
        fill-rule: evenodd;
      }
    </style>
  </defs>
  <g id="mission">
    <path id="Фигура_28" data-name="Фигура 28" class="cls-1" d="M205.138,81.522c-3.129.724-19.549-7.195-19.45-9.672s13-13.494,12.156-14.507S190.249,59.3,185.688,64.6s-8.071,16.91-7.293,48.357c0.5,20.394-1.425,56.463-9.725,67.7-11.362,15.381-20.961,25.936-31.6,24.178S96.2,186.64,76.285,180.654s-23.97-3.434-26.743-4.836S30.6,163.1,30.093,154.057s0.629-19.588,4.862-19.343,14.633,9.418,26.743,14.508,25.822,10.856,41.33,14.507,34.118,6.081,34.037,7.253-9.016,9.894-4.863,21.761c2.232,6.377,11.82,6.073,17.019,2.418s9.724-12.089,9.724-12.089-13.085,9.781-17.018,4.835-4.72-9.18-2.431-12.089,7.293-9.671,7.293-9.671-38.01-6.153-48.623-9.672c-23.223-7.7-41.892-16.443-41.33-19.343s12.133-9.154,14.587-26.6-2.944-35.459-2.431-48.357S74.145,38.064,81.148,38c16.695-.153,23.106,4.9,55.918,7.254s55.271,1.632,60.779,4.836S210.225,59.506,210,67.014,208.266,80.8,205.138,81.522Zm-92.385,67.7,4.862-12.09L100.6,132.3l-4.862,9.671Zm0-79.79a42.292,42.292,0,0,0-4.863,19.343c-0.089,11.23-.772,16.553-2.431,24.179a35.177,35.177,0,0,1-4.862,12.089l17.018,4.836a65.4,65.4,0,0,0,4.863-21.761c0.292-11.375-.182-14.393,2.231-23.87,2.3-9.033,5.062-12.4,5.062-12.4Z"/>
  </g>
</svg>
